<svg width="19" height="14" viewBox="0 0 19 14" fill="none" xmlns="http://www.w3.org/2000/svg">
<path d="M0.963641 7.69872C0.82512 7.55971 0.755859 7.3512 0.755859 7.2122C0.755859 7.07319 0.82512 6.86469 0.963641 6.72568L1.93329 5.75265C2.21033 5.47464 2.62589 5.47464 2.90293 5.75265L2.97219 5.82215L6.78152 9.92279C6.92004 10.0618 7.12782 10.0618 7.26634 9.92279L16.5472 0.261974H16.6165C16.8935 -0.0160355 17.3091 -0.0160355 17.5861 0.261974L18.5558 1.23501C18.8328 1.51301 18.8328 1.93003 18.5558 2.20804L7.47412 13.7454C7.3356 13.8844 7.19708 13.9539 6.9893 13.9539C6.78152 13.9539 6.64299 13.8844 6.50447 13.7454L1.10216 7.90722L0.963641 7.69872Z" fill="#212121"/>
</svg>
