<svg width="11" height="7" viewBox="0 0 11 7" fill="none" xmlns="http://www.w3.org/2000/svg">
<path d="M0.225915 1.35587C-0.0753049 1.04581 -0.0753049 0.542613 0.225915 0.232549C0.526645 -0.0775162 1.01445 -0.0775162 1.31518 0.232549C1.59421 0.520233 2.98909 1.95864 5.50006 4.54781C8.01104 1.95864 9.40617 0.520483 9.68494 0.232801C9.98591 -0.0772647 10.4737 -0.0772647 10.7745 0.232801C11.0752 0.542865 11.0752 1.04581 10.7745 1.35612C10.3015 1.84373 6.51763 5.74507 6.04469 6.23267C5.89421 6.38758 5.69714 6.46503 5.50006 6.46503C5.30299 6.46503 5.10592 6.38758 4.95542 6.23242C4.00958 5.25721 0.698841 1.84347 0.225915 1.35587Z" fill="#B48C52"/>
</svg>
