<svg width="19" height="19" viewBox="0 0 19 19" fill="none" xmlns="http://www.w3.org/2000/svg">
<rect x="0.5" y="0.5" width="18" height="18" rx="9" fill="white" stroke="#B48C52"/>
<path d="M8.97277 13.2981H10.3331V14.72H8.97277V13.2981ZM6.66906 7.82251C6.66906 6.83813 6.94706 6.04744 7.50305 5.45044C8.05904 4.84888 8.82238 4.5481 9.79309 4.5481C10.6909 4.5481 11.4086 4.80558 11.9464 5.32056C12.4887 5.83097 12.7599 6.48494 12.7599 7.28247C12.7599 7.76554 12.6596 8.15747 12.4591 8.45825C12.2631 8.75903 11.8644 9.20109 11.2628 9.78442C10.8253 10.2083 10.5405 10.5683 10.4083 10.8645C10.2807 11.1562 10.2169 11.5891 10.2169 12.1633H9.00012C9.00012 11.5116 9.07759 10.9875 9.23254 10.5911C9.38749 10.19 9.72701 9.73201 10.2511 9.21704L10.798 8.677C10.962 8.52205 11.0942 8.36027 11.1945 8.19165C11.3767 7.89543 11.4679 7.58781 11.4679 7.2688C11.4679 6.82218 11.3335 6.43481 11.0646 6.10669C10.8002 5.77856 10.3605 5.6145 9.74523 5.6145C8.98417 5.6145 8.4578 5.89705 8.16613 6.46216C8.00207 6.77661 7.90865 7.23006 7.88586 7.82251H6.66906Z" fill="#B48C52"/>
</svg>
