<svg width="19" height="19" viewBox="0 0 19 19" fill="none" xmlns="http://www.w3.org/2000/svg">
<g clip-path="url(#clip0)">
<mask id="path-1-inside-1" fill="white">
<path fill-rule="evenodd" clip-rule="evenodd" d="M4.55722 9.0002L0.299459 13.258C-0.0998204 13.6572 -0.0998193 14.3013 0.29946 14.7006C0.697927 15.099 1.34442 15.0998 1.74288 14.7014L6.00065 10.4436L10.2579 14.7008C10.6563 15.0993 11.3028 15.1001 11.7013 14.7016C12.0997 14.3032 12.0997 13.6559 11.7013 13.2574L7.44407 9.0002L11.7013 4.74299C12.1006 4.34371 12.0997 3.69722 11.7013 3.29875C11.302 2.89947 10.6563 2.9011 10.2579 3.29956L6.00065 7.55677L1.74288 3.29901C1.34442 2.90054 0.697926 2.90136 0.29946 3.29982C-0.099819 3.6991 -0.0998198 4.34315 0.299459 4.74243L4.55722 9.0002Z"/>
</mask>
<path fill-rule="evenodd" clip-rule="evenodd" d="M4.55722 9.0002L0.299459 13.258C-0.0998204 13.6572 -0.0998193 14.3013 0.29946 14.7006C0.697927 15.099 1.34442 15.0998 1.74288 14.7014L6.00065 10.4436L10.2579 14.7008C10.6563 15.0993 11.3028 15.1001 11.7013 14.7016C12.0997 14.3032 12.0997 13.6559 11.7013 13.2574L7.44407 9.0002L11.7013 4.74299C12.1006 4.34371 12.0997 3.69722 11.7013 3.29875C11.302 2.89947 10.6563 2.9011 10.2579 3.29956L6.00065 7.55677L1.74288 3.29901C1.34442 2.90054 0.697926 2.90136 0.29946 3.29982C-0.099819 3.6991 -0.0998198 4.34315 0.299459 4.74243L4.55722 9.0002Z" fill="url(#paint0_linear)"/>
<path d="M0.299459 13.258L0.653012 13.6115H0.653012L0.299459 13.258ZM4.55722 9.0002L4.91078 9.35375L5.26433 9.0002L4.91078 8.64664L4.55722 9.0002ZM0.29946 14.7006L-0.0540933 15.0541H-0.0540931L0.29946 14.7006ZM1.74288 14.7014L1.38933 14.3478L1.74288 14.7014ZM6.00065 10.4436L6.3542 10.0901L6.00065 9.73651L5.64709 10.0901L6.00065 10.4436ZM10.2579 14.7008L9.9043 15.0544L10.2579 14.7008ZM11.7013 13.2574L11.3477 13.611L11.7013 13.2574ZM7.44407 9.0002L7.09052 8.64664L6.73696 9.0002L7.09052 9.35375L7.44407 9.0002ZM11.7013 4.74299L11.3477 4.38943V4.38943L11.7013 4.74299ZM11.7013 3.29875L11.3477 3.6523L11.3477 3.6523L11.7013 3.29875ZM10.2579 3.29956L9.9043 2.94601V2.94601L10.2579 3.29956ZM6.00065 7.55677L5.64709 7.91033L6.00065 8.26388L6.3542 7.91033L6.00065 7.55677ZM1.74288 3.29901L1.38933 3.65256L1.74288 3.29901ZM0.29946 3.29982L-0.0540931 2.94627L-0.0540932 2.94627L0.29946 3.29982ZM0.299459 4.74243L0.653013 4.38888V4.38888L0.299459 4.74243ZM0.653012 13.6115L4.91078 9.35375L4.20367 8.64664L-0.0540945 12.9044L0.653012 13.6115ZM0.653014 14.347C0.448995 14.143 0.448996 13.8155 0.653012 13.6115L-0.0540943 12.9044C-0.648637 13.4989 -0.648634 14.4596 -0.0540933 15.0541L0.653014 14.347ZM1.38933 14.3478C1.18665 14.5505 0.856738 14.5507 0.653013 14.347L-0.0540931 15.0541C0.539115 15.6473 1.50219 15.6492 2.09644 15.0549L1.38933 14.3478ZM5.64709 10.0901L1.38933 14.3478L2.09644 15.0549L6.3542 10.7972L5.64709 10.0901ZM10.6114 14.3473L6.3542 10.0901L5.64709 10.7972L9.9043 15.0544L10.6114 14.3473ZM11.3477 14.3481C11.145 14.5508 10.8151 14.551 10.6114 14.3473L9.9043 15.0544C10.4975 15.6476 11.4606 15.6494 12.0548 15.0552L11.3477 14.3481ZM11.3477 13.611C11.5509 13.8142 11.5509 14.1449 11.3477 14.3481L12.0548 15.0552C12.6486 14.4615 12.6486 13.4976 12.0548 12.9039L11.3477 13.611ZM7.09052 9.35375L11.3477 13.611L12.0548 12.9039L7.79762 8.64664L7.09052 9.35375ZM11.3477 4.38943L7.09052 8.64664L7.79762 9.35375L12.0548 5.09654L11.3477 4.38943ZM11.3477 3.6523C11.5512 3.85577 11.5515 4.18568 11.3477 4.38943L12.0548 5.09654C12.6496 4.50174 12.6483 3.53866 12.0548 2.9452L11.3477 3.6523ZM10.6114 3.65312C10.8154 3.44913 11.1445 3.44906 11.3477 3.6523L12.0548 2.9452C11.4595 2.34988 10.4973 2.35306 9.9043 2.94601L10.6114 3.65312ZM6.3542 7.91033L10.6114 3.65312L9.9043 2.94601L5.64709 7.20322L6.3542 7.91033ZM1.38933 3.65256L5.64709 7.91033L6.3542 7.20322L2.09644 2.94546L1.38933 3.65256ZM0.653014 3.65338C0.856737 3.44965 1.18664 3.44988 1.38933 3.65256L2.09644 2.94546C1.50219 2.35121 0.539115 2.35306 -0.0540931 2.94627L0.653014 3.65338ZM0.653013 4.38888C0.448996 4.18486 0.448996 3.85739 0.653014 3.65338L-0.0540932 2.94627C-0.648634 3.54081 -0.648636 4.50144 -0.054094 5.09598L0.653013 4.38888ZM4.91078 8.64664L0.653013 4.38888L-0.054094 5.09598L4.20367 9.35375L4.91078 8.64664Z" fill="url(#paint1_linear)" mask="url(#path-1-inside-1)"/>
</g>
<defs>
<linearGradient id="paint0_linear" x1="12.0004" y1="15.0001" x2="-13.7908" y2="12.0617" gradientUnits="userSpaceOnUse">
<stop stop-color="#B48C52"/>
<stop offset="1" stop-color="#ECC893"/>
</linearGradient>
<linearGradient id="paint1_linear" x1="12.0004" y1="15.0001" x2="-13.7908" y2="12.0617" gradientUnits="userSpaceOnUse">
<stop stop-color="#B48C52"/>
<stop offset="1" stop-color="#ECC893"/>
</linearGradient>
<clipPath id="clip0">
<rect width="19" height="19" fill="white" transform="matrix(-1 0 0 1 19 0)"/>
</clipPath>
</defs>
</svg>
