<svg width="18" height="19" viewBox="0 0 18 19" fill="none" xmlns="http://www.w3.org/2000/svg">
<mask id="path-1-inside-1" fill="white">
<path fill-rule="evenodd" clip-rule="evenodd" d="M6.83589 9.21435L0.449189 15.601C-0.14973 16.2 -0.149728 17.166 0.449191 17.765C1.04689 18.3627 2.01663 18.3639 2.61433 17.7662L9.00103 11.3795L15.3868 17.7652C15.9845 18.3629 16.9542 18.3642 17.5519 17.7665C18.1496 17.1688 18.1496 16.1978 17.5519 15.6001L11.1662 9.21435L17.5519 2.82859C18.1508 2.22967 18.1496 1.25993 17.5519 0.662235C16.953 0.0633153 15.9845 0.0657548 15.3868 0.663454L9.00103 7.04921L2.61432 0.662511C2.01662 0.0648115 1.04689 0.0660328 0.44919 0.663732C-0.149729 1.26265 -0.14973 2.22873 0.449189 2.82765L6.83589 9.21435Z"/>
</mask>
<path fill-rule="evenodd" clip-rule="evenodd" d="M6.83589 9.21435L0.449189 15.601C-0.14973 16.2 -0.149728 17.166 0.449191 17.765C1.04689 18.3627 2.01663 18.3639 2.61433 17.7662L9.00103 11.3795L15.3868 17.7652C15.9845 18.3629 16.9542 18.3642 17.5519 17.7665C18.1496 17.1688 18.1496 16.1978 17.5519 15.6001L11.1662 9.21435L17.5519 2.82859C18.1508 2.22967 18.1496 1.25993 17.5519 0.662235C16.953 0.0633153 15.9845 0.0657548 15.3868 0.663454L9.00103 7.04921L2.61432 0.662511C2.01662 0.0648115 1.04689 0.0660328 0.44919 0.663732C-0.149729 1.26265 -0.14973 2.22873 0.449189 2.82765L6.83589 9.21435Z" fill="white"/>
<path d="M0.449189 15.601L0.802742 15.9546H0.802742L0.449189 15.601ZM6.83589 9.21435L7.18944 9.5679L7.543 9.21435L7.18944 8.86079L6.83589 9.21435ZM0.449191 17.765L0.802745 17.4114H0.802744L0.449191 17.765ZM2.61433 17.7662L2.96788 18.1197H2.96788L2.61433 17.7662ZM9.00103 11.3795L9.35458 11.0259L9.00103 10.6724L8.64747 11.0259L9.00103 11.3795ZM15.3868 17.7652L15.7403 17.4117L15.3868 17.7652ZM17.5519 17.7665L17.9055 18.12H17.9055L17.5519 17.7665ZM17.5519 15.6001L17.9055 15.2466V15.2466L17.5519 15.6001ZM11.1662 9.21435L10.8126 8.8608L10.4591 9.21435L10.8126 9.5679L11.1662 9.21435ZM17.5519 2.82859L17.1984 2.47504L17.5519 2.82859ZM17.5519 0.662235L17.9055 0.308682L17.9055 0.308681L17.5519 0.662235ZM15.3868 0.663454L15.0332 0.3099V0.3099L15.3868 0.663454ZM9.00103 7.04921L8.64747 7.40277L9.00102 7.75632L9.35458 7.40277L9.00103 7.04921ZM2.61432 0.662511L2.96788 0.308957L2.96788 0.308957L2.61432 0.662511ZM0.44919 0.663732L0.0956364 0.310178L0.0956364 0.310178L0.44919 0.663732ZM0.449189 2.82765L0.802742 2.47409L0.449189 2.82765ZM0.802742 15.9546L7.18944 9.5679L6.48234 8.86079L0.0956356 15.2475L0.802742 15.9546ZM0.802744 17.4114C0.399086 17.0077 0.399087 16.3583 0.802742 15.9546L0.0956358 15.2475C-0.698546 16.0417 -0.698543 17.3243 0.0956377 18.1185L0.802744 17.4114ZM2.26077 17.4126C1.85885 17.8145 1.2057 17.8144 0.802745 17.4114L0.0956374 18.1185C0.88808 18.911 2.1744 18.9132 2.96788 18.1197L2.26077 17.4126ZM8.64747 11.0259L2.26077 17.4126L2.96788 18.1197L9.35458 11.733L8.64747 11.0259ZM15.7403 17.4117L9.35458 11.0259L8.64747 11.733L15.0332 18.1188L15.7403 17.4117ZM17.1984 17.4129C16.7964 17.8148 16.1433 17.8146 15.7403 17.4117L15.0332 18.1188C15.8257 18.9112 17.112 18.9135 17.9055 18.12L17.1984 17.4129ZM17.1984 15.9537C17.6008 16.3561 17.6008 17.0105 17.1984 17.4129L17.9055 18.12C18.6984 17.3271 18.6984 16.0395 17.9055 15.2466L17.1984 15.9537ZM10.8126 9.5679L17.1984 15.9537L17.9055 15.2466L11.5197 8.8608L10.8126 9.5679ZM17.1984 2.47504L10.8126 8.8608L11.5197 9.5679L17.9055 3.18214L17.1984 2.47504ZM17.1984 1.01579C17.6011 1.41849 17.6018 2.07164 17.1984 2.47504L17.9055 3.18214C18.6999 2.3877 18.6982 1.10138 17.9055 0.308682L17.1984 1.01579ZM15.7403 1.01701C16.1436 0.613792 16.7955 0.612908 17.1984 1.01579L17.9055 0.308681C17.1105 -0.486278 15.8254 -0.482282 15.0332 0.3099L15.7403 1.01701ZM9.35458 7.40277L15.7403 1.01701L15.0332 0.3099L8.64747 6.69566L9.35458 7.40277ZM2.26077 1.01606L8.64747 7.40277L9.35458 6.69566L2.96788 0.308957L2.26077 1.01606ZM0.802743 1.01729C1.2057 0.614329 1.85885 0.614146 2.26077 1.01606L2.96788 0.308957C2.1744 -0.484523 0.888078 -0.482263 0.0956364 0.310178L0.802743 1.01729ZM0.802742 2.47409C0.399086 2.07044 0.399086 1.42094 0.802743 1.01729L0.0956364 0.310178C-0.698544 1.10436 -0.698546 2.38702 0.0956351 3.1812L0.802742 2.47409ZM7.18944 8.86079L0.802742 2.47409L0.0956351 3.1812L6.48234 9.5679L7.18944 8.86079Z" fill="white" mask="url(#path-1-inside-1)"/>
</svg>
