<svg width="1140" height="131" viewBox="0 0 1140 131" fill="none" xmlns="http://www.w3.org/2000/svg">
<g opacity="0.6">
<g clip-path="url(#clip0)">
<path d="M328.926 -161.408H328.392L309.975 -142.992L291.559 -161.408H290.486L272.074 -142.992L253.658 -161.408H252.585L234.173 -142.992L215.756 -161.408H214.684L196.271 -142.992L177.855 -161.408H176.782L158.37 -142.992L139.953 -161.408H138.881L120.468 -142.992L102.052 -161.408H100.979L82.567 -142.992L64.1507 -161.408H63.0781L44.6656 -142.992L26.2493 -161.408H25.1767L6.76422 -142.992L-11.6521 -161.408H-12.7247L-31.1372 -142.992L-49.5534 -161.408H-50.6261L-69.0386 -142.992L-87.4548 -161.408H-88.5237L-106.94 -142.992L-125.356 -161.408H-125.891V-160.874L-107.474 -142.458L-125.891 -124.041V-85.0711L-107.474 -66.6549L-125.891 -48.2386V-9.26839L-107.474 9.1479L-125.891 27.5642V66.5344L-107.474 84.9507L-125.891 103.367V142.337L-107.474 160.753L-125.891 179.17V218.144L-107.474 236.556L-125.891 254.972V293.408H-125.356L-125.512 293.253V256.424L-107.474 274.458L-88.5237 293.408H-87.451L-68.5004 274.458L-50.4669 256.42V293.249L-50.6223 293.404H-49.5497L-49.7051 293.249V256.42L-31.6716 274.458L-12.7209 293.408H-11.6483L7.30243 274.458L25.3359 256.42V293.249L25.1805 293.404H26.2531L26.0977 293.249V256.42L44.1312 274.458L63.0819 293.408H64.1545L83.1052 274.458L101.139 256.42V293.249L100.983 293.404H102.056L101.9 293.249V256.42L119.934 274.458L138.885 293.408H139.957L158.908 274.458L176.941 256.42V293.249L176.786 293.404H177.859L177.703 293.249V256.42L195.737 274.458L214.687 293.408H215.76L234.711 274.458L252.744 256.42V293.249L252.589 293.404H253.661L253.506 293.249V256.42L271.543 274.458L290.494 293.408H291.567L310.517 274.458L328.555 256.42V293.249L328.399 293.404H328.926V254.972L310.51 236.556L328.926 218.14V179.17L310.51 160.753L328.926 142.337V103.367L310.51 84.9507L328.926 66.5344V27.5642L310.51 9.1479L328.926 -9.26839V-48.2386L310.51 -66.6549L328.926 -85.0711V-124.041L310.51 -142.458L328.926 -160.874V-161.408ZM272.074 160.219L253.502 141.647V104.815L271.539 122.852L290.49 141.803L272.074 160.219ZM290.646 142.72V179.549L272.074 198.12L253.658 179.704L272.608 160.753L290.646 142.72ZM-87.4548 141.803L-68.5041 122.852L-50.4669 104.815V141.644L-69.0386 160.215L-87.4548 141.803ZM-50.6261 179.704L-69.0386 198.12L-87.6102 179.549V142.716L-69.573 160.753L-50.6261 179.704ZM215.756 66L234.707 47.0493L252.744 29.012V65.8408L234.173 84.4125L215.756 66ZM252.585 103.901L234.173 122.318L215.601 103.746V66.9134L233.638 84.9507L252.585 103.901ZM252.744 -9.95819L234.173 8.61349L215.756 -9.8028L234.707 -28.7535L252.744 -46.7907V-9.95819ZM253.123 -9.26459L271.539 9.1479L253.123 27.5642L234.707 9.1479L253.123 -9.26459ZM233.638 9.1479L252.589 28.0986L234.173 46.5149L215.601 27.9432V-8.88936L233.638 9.1479ZM233.638 47.0493L215.222 65.4656L196.806 47.0493L215.222 28.633L233.638 47.0493ZM196.806 84.9507L214.843 66.9134V103.742L196.271 122.314L177.855 103.901L196.806 84.9507ZM196.271 84.4163L177.699 65.8446V29.012L195.737 47.0493L214.687 66L196.271 84.4163ZM214.843 27.9432L196.271 46.5149L177.855 28.0986L196.806 9.1479L214.843 -8.88936V27.9432ZM196.271 8.61349L177.699 -9.95819V-46.7907L195.737 -28.7535L214.687 -9.8028L196.271 8.61349ZM195.737 9.1479L177.32 27.5642L158.904 9.1479L177.32 -9.26839L195.737 9.1479ZM139.953 66L158.904 47.0493L176.941 29.012V65.8408L158.37 84.4125L139.953 66ZM176.782 103.901L158.37 122.318L139.798 103.746V66.9134L157.835 84.9507L176.782 103.901ZM176.941 -9.95819L158.37 8.61349L139.953 -9.8028L158.904 -28.7535L176.941 -46.7907V-9.95819ZM157.835 9.1479L176.786 28.0986L158.37 46.5149L139.798 27.9432V-8.88936L157.835 9.1479ZM157.835 47.0493L139.419 65.4656L121.003 47.0493L139.419 28.633L157.835 47.0493ZM121.003 84.9507L139.04 66.9134V103.742L120.468 122.314L102.052 103.901L121.003 84.9507ZM120.468 84.4163L101.897 65.8446V29.012L119.934 47.0493L138.885 66L120.468 84.4163ZM139.04 27.9432L120.468 46.5149L102.052 28.0986L121.003 9.1479L139.04 -8.88936V27.9432ZM120.468 8.61349L101.897 -9.95819V-46.7907L119.934 -28.7535L138.885 -9.8028L120.468 8.61349ZM119.934 9.1479L101.518 27.5642L83.1014 9.1479L101.518 -9.26839L119.934 9.1479ZM64.1507 66L83.1014 47.0493L101.139 29.012V65.8408L82.567 84.4125L64.1507 66ZM100.979 103.901L82.567 122.318L63.9953 103.746V66.9134L82.0326 84.9507L100.979 103.901ZM101.139 -9.95819L82.567 8.61349L64.1507 -9.8028L83.1014 -28.7535L101.139 -46.7907V-9.95819ZM82.0326 9.1479L100.983 28.0986L82.567 46.5149L63.9953 27.9432V-8.88936L82.0326 9.1479ZM82.0326 47.0493L63.6163 65.4656L45.2 47.0493L63.6163 28.633L82.0326 47.0493ZM45.2 84.9507L63.2373 66.9134V103.742L44.6656 122.314L26.2493 103.901L45.2 84.9507ZM44.6656 84.4163L26.0939 65.8446V29.012L44.1312 47.0493L63.0819 66L44.6656 84.4163ZM63.2373 27.9432L44.6656 46.5149L26.2493 28.0986L45.2 9.1479L63.2373 -8.88936V27.9432ZM44.6656 8.61349L26.0939 -9.95819V-46.7907L44.1312 -28.7535L63.0819 -9.8028L44.6656 8.61349ZM44.1312 9.1479L25.7149 27.5642L7.29863 9.1479L25.7149 -9.26839L44.1312 9.1479ZM-11.6521 66L7.29863 47.0493L25.3359 29.012V65.8408L6.76422 84.4125L-11.6521 66ZM25.1767 103.901L6.76422 122.318L-11.8075 103.746V66.9134L6.22981 84.9507L25.1767 103.901ZM25.3359 -9.95819L6.76422 8.61349L-11.6521 -9.8028L7.29863 -28.7535L25.3359 -46.7907V-9.95819ZM6.22981 9.1479L25.1805 28.0986L6.76422 46.5149L-11.8075 27.9432V-8.88936L6.22981 9.1479ZM6.22981 47.0493L-12.1865 65.4656L-30.6028 47.0493L-12.1865 28.633L6.22981 47.0493ZM-30.6028 84.9507L-12.5655 66.9134V103.742L-31.1372 122.314L-49.5534 103.901L-30.6028 84.9507ZM-31.1372 84.4163L-49.7088 65.8446V29.012L-31.6716 47.0493L-12.7209 66L-31.1372 84.4163ZM-12.5655 27.9432L-31.1372 46.5149L-49.5534 28.0986L-30.6028 9.1479L-12.5655 -8.88936V27.9432ZM-31.1372 8.61349L-49.7088 -9.95819V-46.7907L-31.6716 -28.7535L-12.7209 -9.8028L-31.1372 8.61349ZM-31.6716 9.1479L-50.0879 27.5642L-68.5041 9.1479L-50.0879 -9.26839L-31.6716 9.1479ZM-50.4669 -9.95819L-69.0386 8.61349L-87.4548 -9.8028L-68.5041 -28.7535L-50.4669 -46.7907V-9.95819ZM-69.573 9.1479L-50.6223 28.0986L-69.0386 46.5149L-87.6102 27.9432V-8.88936L-69.573 9.1479ZM-68.5004 47.0493L-50.4669 29.012V65.8408L-69.0386 84.4125L-87.4548 66L-68.5004 47.0493ZM-69.573 84.9507L-50.6223 103.901L-69.0386 122.318L-87.6102 103.746V66.9134L-69.573 84.9507ZM-68.5004 84.9507L-50.0879 66.5344L-31.6716 84.9507L-50.0879 103.367L-68.5004 84.9507ZM-49.7088 104.815L-31.6716 122.852L-12.7209 141.803L-31.1372 160.219L-49.7088 141.647V104.815ZM-30.6028 160.753L-12.5655 142.716V179.545L-31.1372 198.117L-49.5534 179.704L-30.6028 160.753ZM-30.6028 122.852L-12.1865 104.436L6.22981 122.852L-12.1865 141.268L-30.6028 122.852ZM-11.8075 142.716L6.22981 160.753L25.1805 179.704L6.76422 198.12L-11.8075 179.549V142.716ZM-11.6521 141.803L7.29863 122.852L25.3359 104.815V141.644L6.76422 160.215L-11.6521 141.803ZM7.29863 84.9507L25.7149 66.5344L44.1312 84.9507L25.7149 103.367L7.29863 84.9507ZM26.0939 104.815L44.1312 122.852L63.0819 141.803L44.6656 160.219L26.0939 141.647V104.815ZM45.2 160.753L63.2373 142.716V179.545L44.6656 198.117L26.2493 179.704L45.2 160.753ZM45.2 122.852L63.6163 104.436L82.0326 122.852L63.6163 141.268L45.2 122.852ZM63.9953 142.716L82.0326 160.753L100.983 179.704L82.567 198.12L63.9953 179.549V142.716ZM64.1507 141.803L83.1014 122.852L101.139 104.815V141.644L82.567 160.215L64.1507 141.803ZM83.1014 84.9507L101.518 66.5344L119.934 84.9507L101.518 103.367L83.1014 84.9507ZM101.897 104.815L119.934 122.852L138.885 141.803L120.468 160.219L101.897 141.647V104.815ZM121.003 160.753L139.04 142.716V179.545L120.468 198.117L102.052 179.704L121.003 160.753ZM121.003 122.852L139.419 104.436L157.835 122.852L139.419 141.268L121.003 122.852ZM139.798 142.716L157.835 160.753L176.786 179.704L158.37 198.12L139.798 179.549V142.716ZM139.953 141.803L158.904 122.852L176.941 104.815V141.644L158.37 160.215L139.953 141.803ZM158.904 84.9507L177.32 66.5344L195.737 84.9507L177.32 103.367L158.904 84.9507ZM177.699 104.815L195.737 122.852L214.687 141.803L196.271 160.219L177.699 141.647V104.815ZM196.806 160.753L214.843 142.716V179.545L196.271 198.117L177.855 179.704L196.806 160.753ZM196.806 122.852L215.222 104.436L233.638 122.852L215.222 141.268L196.806 122.852ZM215.601 142.716L233.638 160.753L252.589 179.704L234.173 198.12L215.601 179.549V142.716ZM215.756 141.803L234.707 122.852L252.744 104.815V141.644L234.173 160.215L215.756 141.803ZM234.707 84.9507L253.123 66.5344L271.539 84.9507L253.123 103.367L234.707 84.9507ZM253.658 103.901L272.608 84.9507L290.646 66.9134V103.742L272.074 122.314L253.658 103.901ZM272.074 84.4163L253.502 65.8446V29.012L271.539 47.0493L290.49 66L272.074 84.4163ZM253.658 28.0986L272.608 9.1479L290.646 -8.88936V27.9394L272.074 46.5111L253.658 28.0986ZM272.074 8.61349L253.502 -9.95819V-46.7907L271.539 -28.7535L290.49 -9.8028L272.074 8.61349ZM253.658 -47.7042L272.608 -66.6549L290.646 -84.6921V-47.8634L272.074 -29.2917L253.658 -47.7042ZM272.074 -67.1893L253.502 -85.761V-122.594L271.539 -104.556L290.49 -85.6056L272.074 -67.1893ZM271.539 -66.6549L253.123 -48.2386L234.707 -66.6549L253.123 -85.0711L271.539 -66.6549ZM252.744 -85.761L234.173 -67.1893L215.756 -85.6056L234.707 -104.556L252.744 -122.594V-85.761ZM233.638 -66.6549L252.589 -47.7042L234.173 -29.2879L215.601 -47.8596V-84.6921L233.638 -66.6549ZM233.638 -28.7535L215.222 -10.3372L196.806 -28.7535L215.222 -47.1698L233.638 -28.7535ZM214.843 -47.8596L196.271 -29.2879L177.855 -47.7042L196.806 -66.6549L214.843 -84.6921V-47.8596ZM196.271 -67.1893L177.699 -85.761V-122.594L195.737 -104.556L214.687 -85.6056L196.271 -67.1893ZM195.737 -66.6549L177.32 -48.2386L158.904 -66.6549L177.32 -85.0711L195.737 -66.6549ZM176.941 -85.761L158.37 -67.1893L139.953 -85.6056L158.904 -104.556L176.941 -122.594V-85.761ZM157.835 -66.6549L176.786 -47.7042L158.37 -29.2879L139.798 -47.8596V-84.6921L157.835 -66.6549ZM157.835 -28.7535L139.419 -10.3372L121.003 -28.7535L139.419 -47.1698L157.835 -28.7535ZM139.04 -47.8596L120.468 -29.2879L102.052 -47.7042L121.003 -66.6549L139.04 -84.6921V-47.8596ZM120.468 -67.1893L101.897 -85.761V-122.594L119.934 -104.556L138.885 -85.6056L120.468 -67.1893ZM119.934 -66.6549L101.518 -48.2386L83.1014 -66.6549L101.518 -85.0711L119.934 -66.6549ZM101.139 -85.761L82.567 -67.1893L64.1507 -85.6056L83.1014 -104.556L101.139 -122.594V-85.761ZM82.0326 -66.6549L100.983 -47.7042L82.567 -29.2879L63.9953 -47.8596V-84.6921L82.0326 -66.6549ZM82.0326 -28.7535L63.6163 -10.3372L45.2 -28.7535L63.6163 -47.1698L82.0326 -28.7535ZM63.2373 -47.8596L44.6656 -29.2879L26.2493 -47.7042L45.2 -66.6549L63.2373 -84.6921V-47.8596ZM44.6656 -67.1893L26.0939 -85.761V-122.594L44.1312 -104.556L63.0819 -85.6056L44.6656 -67.1893ZM44.1312 -66.6549L25.7149 -48.2386L7.29863 -66.6549L25.7149 -85.0711L44.1312 -66.6549ZM25.3359 -85.761L6.76422 -67.1893L-11.6521 -85.6056L7.29863 -104.556L25.3359 -122.594V-85.761ZM6.22981 -66.6549L25.1805 -47.7042L6.76422 -29.2879L-11.8075 -47.8596V-84.6921L6.22981 -66.6549ZM6.22981 -28.7535L-12.1865 -10.3372L-30.6028 -28.7535L-12.1865 -47.1698L6.22981 -28.7535ZM-12.5655 -47.8596L-31.1372 -29.2879L-49.5534 -47.7042L-30.6028 -66.6549L-12.5655 -84.6921V-47.8596ZM-31.1372 -67.1893L-49.7088 -85.761V-122.594L-31.6716 -104.556L-12.7209 -85.6056L-31.1372 -67.1893ZM-31.6716 -66.6549L-50.0879 -48.2386L-68.5041 -66.6549L-50.0879 -85.0711L-31.6716 -66.6549ZM-50.4669 -85.761L-69.0386 -67.1893L-87.4548 -85.6056L-68.5041 -104.556L-50.4669 -122.594V-85.761ZM-69.573 -66.6549L-50.6223 -47.7042L-69.0386 -29.2879L-87.6102 -47.8596V-84.6921L-69.573 -66.6549ZM-69.573 -28.7535L-87.9892 -10.3372L-106.406 -28.7535L-87.9892 -47.1698L-69.573 -28.7535ZM-69.573 47.0493L-87.9892 65.4656L-106.406 47.0493L-87.9892 28.633L-69.573 47.0493ZM-69.573 122.852L-87.9892 141.268L-106.406 122.852L-87.9892 104.436L-69.573 122.852ZM-69.573 198.655L-87.9892 217.071L-106.406 198.655L-87.9892 180.239L-69.573 198.655ZM-68.5004 198.655L-50.4669 180.618V217.446L-69.0386 236.018L-87.4548 217.605L-68.5004 198.655ZM-68.5004 160.753L-50.0879 142.337L-31.6716 160.753L-50.0879 179.17L-68.5004 160.753ZM-49.7088 180.618L-31.6716 198.655L-12.7209 217.605L-31.1372 236.022L-49.7088 217.45V180.618ZM-30.6028 198.655L-12.1865 180.239L6.22981 198.655L-12.1865 217.071L-30.6028 198.655ZM7.29863 198.655L25.3359 180.618V217.446L6.76422 236.018L-11.6521 217.605L7.29863 198.655ZM7.29863 160.753L25.7149 142.337L44.1312 160.753L25.7149 179.17L7.29863 160.753ZM26.0939 180.618L44.1312 198.655L63.0819 217.605L44.6656 236.022L26.0939 217.45V180.618ZM45.2 198.655L63.6163 180.239L82.0326 198.655L63.6163 217.071L45.2 198.655ZM83.1014 198.655L101.139 180.618V217.446L82.567 236.018L64.1507 217.605L83.1014 198.655ZM83.1014 160.753L101.518 142.337L119.934 160.753L101.518 179.17L83.1014 160.753ZM101.897 180.618L119.934 198.655L138.885 217.605L120.468 236.022L101.897 217.45V180.618ZM121.003 198.655L139.419 180.239L157.835 198.655L139.419 217.071L121.003 198.655ZM158.904 198.655L176.941 180.618V217.446L158.37 236.018L139.953 217.605L158.904 198.655ZM158.904 160.753L177.32 142.337L195.737 160.753L177.32 179.17L158.904 160.753ZM177.699 180.618L195.737 198.655L214.687 217.605L196.271 236.022L177.699 217.45V180.618ZM196.806 198.655L215.222 180.239L233.638 198.655L215.222 217.071L196.806 198.655ZM234.707 198.655L252.744 180.618V217.446L234.173 236.018L215.756 217.605L234.707 198.655ZM234.707 160.753L253.123 142.337L271.539 160.753L253.123 179.17L234.707 160.753ZM253.502 180.618L271.539 198.655L290.49 217.605L272.074 236.022L253.502 217.45V180.618ZM272.608 198.655L291.025 180.239L309.441 198.655L291.025 217.071L272.608 198.655ZM272.608 122.852L291.025 104.436L309.441 122.852L291.025 141.268L272.608 122.852ZM272.608 47.0493L291.025 28.633L309.441 47.0493L291.025 65.4656L272.608 47.0493ZM272.608 -28.7535L291.025 -47.1698L309.441 -28.7535L291.025 -10.3372L272.608 -28.7535ZM272.608 -104.556L291.025 -122.973L309.441 -104.556L291.025 -86.14L272.608 -104.556ZM272.608 -142.458L290.646 -160.495V-123.662L272.074 -105.091L253.658 -123.507L272.608 -142.458ZM253.123 -160.874L271.539 -142.458L253.123 -124.041L234.707 -142.458L253.123 -160.874ZM215.601 -160.495L233.638 -142.458L252.589 -123.507L234.173 -105.091L215.601 -123.662V-160.495ZM233.638 -104.556L215.222 -86.14L196.806 -104.556L215.222 -122.973L233.638 -104.556ZM196.806 -142.458L214.843 -160.495V-123.662L196.271 -105.091L177.855 -123.507L196.806 -142.458ZM177.32 -160.874L195.737 -142.458L177.32 -124.041L158.904 -142.458L177.32 -160.874ZM139.798 -160.495L157.835 -142.458L176.786 -123.507L158.37 -105.091L139.798 -123.662V-160.495ZM157.835 -104.556L139.419 -86.14L121.003 -104.556L139.419 -122.973L157.835 -104.556ZM121.003 -142.458L139.04 -160.495V-123.662L120.468 -105.091L102.052 -123.507L121.003 -142.458ZM101.518 -160.874L119.934 -142.458L101.518 -124.041L83.1014 -142.458L101.518 -160.874ZM63.9953 -160.495L82.0326 -142.458L100.983 -123.507L82.567 -105.091L63.9953 -123.662V-160.495ZM82.0326 -104.556L63.6163 -86.14L45.2 -104.556L63.6163 -122.973L82.0326 -104.556ZM45.2 -142.458L63.2373 -160.495V-123.662L44.6656 -105.091L26.2493 -123.507L45.2 -142.458ZM25.7149 -160.874L44.1312 -142.458L25.7149 -124.041L7.29863 -142.458L25.7149 -160.874ZM-11.8075 -160.495L6.22981 -142.458L25.1805 -123.507L6.76422 -105.091L-11.8075 -123.662V-160.495ZM6.22981 -104.556L-12.1865 -86.14L-30.6028 -104.556L-12.1865 -122.973L6.22981 -104.556ZM-30.6028 -142.458L-12.5655 -160.495V-123.662L-31.1372 -105.091L-49.5534 -123.507L-30.6028 -142.458ZM-50.0879 -160.874L-31.6716 -142.458L-50.0879 -124.041L-68.5041 -142.458L-50.0879 -160.874ZM-87.6102 -160.495L-69.573 -142.458L-50.6223 -123.507L-69.0386 -105.091L-87.6102 -123.662V-160.495ZM-69.573 -104.556L-87.9892 -86.14L-106.406 -104.556L-87.9892 -122.973L-69.573 -104.556ZM-106.406 -142.458L-88.3683 -160.495V-123.662L-106.94 -105.091L-125.356 -123.507L-106.406 -142.458ZM-125.512 -85.761V-122.594L-107.474 -104.556L-88.5237 -85.6056L-106.94 -67.1893L-125.512 -85.761ZM-106.406 -66.6549L-88.3683 -84.6921V-47.8634L-106.94 -29.2917L-125.356 -47.7042L-106.406 -66.6549ZM-125.512 -9.95819V-46.7907L-107.474 -28.7535L-88.5237 -9.8028L-106.94 8.61349L-125.512 -9.95819ZM-106.406 9.1479L-88.3683 -8.88936V27.9394L-106.94 46.5111L-125.356 28.0986L-106.406 9.1479ZM-125.512 65.8446V29.012L-107.474 47.0493L-88.5237 66L-106.94 84.4163L-125.512 65.8446ZM-106.406 84.9507L-88.3683 66.9134V103.742L-106.94 122.314L-125.356 103.901L-106.406 84.9507ZM-125.512 141.647V104.815L-107.474 122.852L-88.5237 141.803L-106.94 160.219L-125.512 141.647ZM-106.406 160.753L-88.3683 142.716V179.545L-106.94 198.117L-125.356 179.704L-106.406 160.753ZM-125.512 217.45V180.618L-107.474 198.655L-88.5237 217.605L-106.94 236.022L-125.512 217.45ZM-125.356 255.507L-106.406 236.556L-88.3683 218.519V255.348L-106.94 273.919L-125.356 255.507ZM-87.9892 292.874L-106.406 274.458L-87.9892 256.041L-69.573 274.458L-87.9892 292.874ZM-69.0386 273.923L-87.6102 255.351V218.523L-69.573 236.556L-50.6223 255.507L-69.0386 273.923ZM-50.0879 254.972L-68.5041 236.556L-50.0879 218.14L-31.6716 236.556L-50.0879 254.972ZM-49.5534 255.507L-30.6028 236.556L-12.5655 218.519V255.348L-31.1372 273.919L-49.5534 255.507ZM-12.1865 292.874L-30.6028 274.458L-12.1865 256.041L6.22981 274.458L-12.1865 292.874ZM6.76422 273.923L-11.8075 255.351V218.523L6.22981 236.556L25.1805 255.507L6.76422 273.923ZM25.7149 254.972L7.29863 236.556L25.7149 218.14L44.1312 236.556L25.7149 254.972ZM26.2493 255.507L45.2 236.556L63.2373 218.519V255.348L44.6656 273.919L26.2493 255.507ZM63.6163 292.874L45.2 274.458L63.6163 256.041L82.0326 274.458L63.6163 292.874ZM82.567 273.923L63.9953 255.351V218.523L82.0326 236.556L100.983 255.507L82.567 273.923ZM101.518 254.972L83.1014 236.556L101.518 218.14L119.934 236.556L101.518 254.972ZM102.052 255.507L121.003 236.556L139.04 218.519V255.348L120.468 273.919L102.052 255.507ZM139.419 292.874L121.003 274.458L139.419 256.041L157.835 274.458L139.419 292.874ZM158.37 273.923L139.798 255.351V218.523L157.835 236.556L176.786 255.507L158.37 273.923ZM177.32 254.972L158.904 236.556L177.32 218.14L195.737 236.556L177.32 254.972ZM177.855 255.507L196.806 236.556L214.843 218.519V255.348L196.271 273.919L177.855 255.507ZM215.222 292.874L196.806 274.458L215.222 256.041L233.638 274.458L215.222 292.874ZM234.173 273.923L215.601 255.351V218.523L233.638 236.556L252.589 255.507L234.173 273.923ZM253.123 254.972L234.707 236.556L253.123 218.14L271.539 236.556L253.123 254.972ZM253.658 255.507L272.608 236.556L290.646 218.519V255.348L272.074 273.919L253.658 255.507ZM291.025 292.874L272.608 274.458L291.025 256.041L309.441 274.458L291.025 292.874ZM328.392 255.507L309.975 273.923L291.404 255.351V218.523L309.441 236.56L328.392 255.507ZM328.547 217.45L309.975 236.022L291.559 217.605L310.51 198.655L328.547 180.618V217.45ZM328.392 179.704L309.975 198.12L291.404 179.549V142.716L309.441 160.753L328.392 179.704ZM328.547 141.647L309.975 160.219L291.559 141.803L310.51 122.852L328.547 104.815V141.647ZM328.392 103.901L309.975 122.318L291.404 103.746V66.9134L309.441 84.9507L328.392 103.901ZM328.547 65.8446L309.975 84.4163L291.559 66L310.51 47.0493L328.547 29.012V65.8446ZM328.392 28.0986L309.975 46.5149L291.404 27.9432V-8.88936L309.441 9.1479L328.392 28.0986ZM328.547 -9.95819L309.975 8.61349L291.559 -9.8028L310.51 -28.7535L328.547 -46.7907V-9.95819ZM328.392 -47.7042L309.975 -29.2879L291.404 -47.8596V-84.6921L309.441 -66.6549L328.392 -47.7042ZM328.547 -85.761L309.975 -67.1893L291.559 -85.6056L310.51 -104.556L328.547 -122.594V-85.761ZM328.392 -123.507L309.975 -105.091L291.404 -123.662V-160.495L309.441 -142.458L328.392 -123.507Z" fill="url(#paint0_linear)"/>
</g>
<g clip-path="url(#clip1)">
<path d="M783.742 -161.408H783.208L764.792 -142.992L746.375 -161.408H745.303L726.89 -142.992L708.474 -161.408H707.401L688.989 -142.992L670.573 -161.408H669.5L651.088 -142.992L632.671 -161.408H631.599L613.186 -142.992L594.77 -161.408H593.697L575.285 -142.992L556.868 -161.408H555.796L537.383 -142.992L518.967 -161.408H517.895L499.482 -142.992L481.066 -161.408H479.993L461.581 -142.992L443.164 -161.408H442.092L423.679 -142.992L405.263 -161.408H404.19L385.778 -142.992L367.362 -161.408H366.293L347.876 -142.992L329.46 -161.408H328.926V-160.874L347.342 -142.458L328.926 -124.041V-85.0711L347.342 -66.6548L328.926 -48.2386V-9.26836L347.342 9.14793L328.926 27.5642V66.5344L347.342 84.9507L328.926 103.367V142.337L347.342 160.753L328.926 179.17V218.144L347.342 236.556L328.926 254.973V293.408H329.46L329.305 293.253V256.424L347.342 274.458L366.293 293.408H367.365L386.316 274.458L404.35 256.42V293.249L404.194 293.405H405.267L405.111 293.249V256.42L423.145 274.458L442.096 293.408H443.168L462.119 274.458L480.152 256.42V293.249L479.997 293.405H481.07L480.914 293.249V256.42L498.948 274.458L517.898 293.408H518.971L537.922 274.458L555.955 256.42V293.249L555.8 293.405H556.872L556.717 293.249V256.42L574.75 274.458L593.701 293.408H594.774L613.724 274.458L631.758 256.42V293.249L631.602 293.405H632.675L632.52 293.249V256.42L650.553 274.458L669.504 293.408H670.576L689.527 274.458L707.561 256.42V293.249L707.405 293.405H708.478L708.322 293.249V256.42L726.36 274.458L745.31 293.408H746.383L765.334 274.458L783.371 256.42V293.249L783.216 293.405H783.742V254.973L765.326 236.556L783.742 218.14V179.17L765.326 160.753L783.742 142.337V103.367L765.326 84.9507L783.742 66.5344V27.5642L765.326 9.14793L783.742 -9.26836V-48.2386L765.326 -66.6548L783.742 -85.0711V-124.041L765.326 -142.458L783.742 -160.874V-161.408ZM726.89 160.219L708.319 141.647V104.815L726.356 122.852L745.307 141.803L726.89 160.219ZM745.462 142.72V179.549L726.89 198.12L708.474 179.704L727.425 160.753L745.462 142.72ZM367.362 141.803L386.312 122.852L404.35 104.815V141.644L385.778 160.215L367.362 141.803ZM404.19 179.704L385.778 198.12L367.206 179.549V142.716L385.243 160.753L404.19 179.704ZM670.573 66L689.523 47.0493L707.561 29.0121V65.8408L688.989 84.4125L670.573 66ZM707.401 103.901L688.989 122.318L670.417 103.746V66.9134L688.455 84.9507L707.401 103.901ZM707.561 -9.95816L688.989 8.61353L670.573 -9.80276L689.523 -28.7534L707.561 -46.7907V-9.95816ZM707.94 -9.26456L726.356 9.14793L707.94 27.5642L689.523 9.14793L707.94 -9.26456ZM688.455 9.14793L707.405 28.0986L688.989 46.5149L670.417 27.9432V-8.88933L688.455 9.14793ZM688.455 47.0493L670.038 65.4656L651.622 47.0493L670.038 28.633L688.455 47.0493ZM651.622 84.9507L669.659 66.9134V103.742L651.088 122.314L632.671 103.901L651.622 84.9507ZM651.088 84.4163L632.516 65.8446V29.0121L650.553 47.0493L669.504 66L651.088 84.4163ZM669.659 27.9432L651.088 46.5149L632.671 28.0986L651.622 9.14793L669.659 -8.88933V27.9432ZM651.088 8.61353L632.516 -9.95816V-46.7907L650.553 -28.7534L669.504 -9.80276L651.088 8.61353ZM650.553 9.14793L632.137 27.5642L613.721 9.14793L632.137 -9.26836L650.553 9.14793ZM594.77 66L613.721 47.0493L631.758 29.0121V65.8408L613.186 84.4125L594.77 66ZM631.599 103.901L613.186 122.318L594.614 103.746V66.9134L612.652 84.9507L631.599 103.901ZM631.758 -9.95816L613.186 8.61353L594.77 -9.80276L613.721 -28.7534L631.758 -46.7907V-9.95816ZM612.652 9.14793L631.602 28.0986L613.186 46.5149L594.614 27.9432V-8.88933L612.652 9.14793ZM612.652 47.0493L594.235 65.4656L575.819 47.0493L594.235 28.633L612.652 47.0493ZM575.819 84.9507L593.856 66.9134V103.742L575.285 122.314L556.868 103.901L575.819 84.9507ZM575.285 84.4163L556.713 65.8446V29.0121L574.75 47.0493L593.701 66L575.285 84.4163ZM593.856 27.9432L575.285 46.5149L556.868 28.0986L575.819 9.14793L593.856 -8.88933V27.9432ZM575.285 8.61353L556.713 -9.95816V-46.7907L574.75 -28.7534L593.701 -9.80276L575.285 8.61353ZM574.75 9.14793L556.334 27.5642L537.918 9.14793L556.334 -9.26836L574.75 9.14793ZM518.967 66L537.918 47.0493L555.955 29.0121V65.8408L537.383 84.4125L518.967 66ZM555.796 103.901L537.383 122.318L518.812 103.746V66.9134L536.849 84.9507L555.796 103.901ZM555.955 -9.95816L537.383 8.61353L518.967 -9.80276L537.918 -28.7534L555.955 -46.7907V-9.95816ZM536.849 9.14793L555.8 28.0986L537.383 46.5149L518.812 27.9432V-8.88933L536.849 9.14793ZM536.849 47.0493L518.433 65.4656L500.016 47.0493L518.433 28.633L536.849 47.0493ZM500.016 84.9507L518.054 66.9134V103.742L499.482 122.314L481.066 103.901L500.016 84.9507ZM499.482 84.4163L480.91 65.8446V29.0121L498.948 47.0493L517.898 66L499.482 84.4163ZM518.054 27.9432L499.482 46.5149L481.066 28.0986L500.016 9.14793L518.054 -8.88933V27.9432ZM499.482 8.61353L480.91 -9.95816V-46.7907L498.948 -28.7534L517.898 -9.80276L499.482 8.61353ZM498.948 9.14793L480.531 27.5642L462.115 9.14793L480.531 -9.26836L498.948 9.14793ZM443.164 66L462.115 47.0493L480.152 29.0121V65.8408L461.581 84.4125L443.164 66ZM479.993 103.901L461.581 122.318L443.009 103.746V66.9134L461.046 84.9507L479.993 103.901ZM480.152 -9.95816L461.581 8.61353L443.164 -9.80276L462.115 -28.7534L480.152 -46.7907V-9.95816ZM461.046 9.14793L479.997 28.0986L461.581 46.5149L443.009 27.9432V-8.88933L461.046 9.14793ZM461.046 47.0493L442.63 65.4656L424.214 47.0493L442.63 28.633L461.046 47.0493ZM424.214 84.9507L442.251 66.9134V103.742L423.679 122.314L405.263 103.901L424.214 84.9507ZM423.679 84.4163L405.108 65.8446V29.0121L423.145 47.0493L442.096 66L423.679 84.4163ZM442.251 27.9432L423.679 46.5149L405.263 28.0986L424.214 9.14793L442.251 -8.88933V27.9432ZM423.679 8.61353L405.108 -9.95816V-46.7907L423.145 -28.7534L442.096 -9.80276L423.679 8.61353ZM423.145 9.14793L404.729 27.5642L386.312 9.14793L404.729 -9.26836L423.145 9.14793ZM404.35 -9.95816L385.778 8.61353L367.362 -9.80276L386.312 -28.7534L404.35 -46.7907V-9.95816ZM385.243 9.14793L404.194 28.0986L385.778 46.5149L367.206 27.9432V-8.88933L385.243 9.14793ZM386.316 47.0493L404.35 29.0121V65.8408L385.778 84.4125L367.362 66L386.316 47.0493ZM385.243 84.9507L404.194 103.901L385.778 122.318L367.206 103.746V66.9134L385.243 84.9507ZM386.316 84.9507L404.729 66.5344L423.145 84.9507L404.729 103.367L386.316 84.9507ZM405.108 104.815L423.145 122.852L442.096 141.803L423.679 160.219L405.108 141.647V104.815ZM424.214 160.753L442.251 142.716V179.545L423.679 198.117L405.263 179.704L424.214 160.753ZM424.214 122.852L442.63 104.436L461.046 122.852L442.63 141.268L424.214 122.852ZM443.009 142.716L461.046 160.753L479.997 179.704L461.581 198.12L443.009 179.549V142.716ZM443.164 141.803L462.115 122.852L480.152 104.815V141.644L461.581 160.215L443.164 141.803ZM462.115 84.9507L480.531 66.5344L498.948 84.9507L480.531 103.367L462.115 84.9507ZM480.91 104.815L498.948 122.852L517.898 141.803L499.482 160.219L480.91 141.647V104.815ZM500.016 160.753L518.054 142.716V179.545L499.482 198.117L481.066 179.704L500.016 160.753ZM500.016 122.852L518.433 104.436L536.849 122.852L518.433 141.268L500.016 122.852ZM518.812 142.716L536.849 160.753L555.8 179.704L537.383 198.12L518.812 179.549V142.716ZM518.967 141.803L537.918 122.852L555.955 104.815V141.644L537.383 160.215L518.967 141.803ZM537.918 84.9507L556.334 66.5344L574.75 84.9507L556.334 103.367L537.918 84.9507ZM556.713 104.815L574.75 122.852L593.701 141.803L575.285 160.219L556.713 141.647V104.815ZM575.819 160.753L593.856 142.716V179.545L575.285 198.117L556.868 179.704L575.819 160.753ZM575.819 122.852L594.235 104.436L612.652 122.852L594.235 141.268L575.819 122.852ZM594.614 142.716L612.652 160.753L631.602 179.704L613.186 198.12L594.614 179.549V142.716ZM594.77 141.803L613.721 122.852L631.758 104.815V141.644L613.186 160.215L594.77 141.803ZM613.721 84.9507L632.137 66.5344L650.553 84.9507L632.137 103.367L613.721 84.9507ZM632.516 104.815L650.553 122.852L669.504 141.803L651.088 160.219L632.516 141.647V104.815ZM651.622 160.753L669.659 142.716V179.545L651.088 198.117L632.671 179.704L651.622 160.753ZM651.622 122.852L670.038 104.436L688.455 122.852L670.038 141.268L651.622 122.852ZM670.417 142.716L688.455 160.753L707.405 179.704L688.989 198.12L670.417 179.549V142.716ZM670.573 141.803L689.523 122.852L707.561 104.815V141.644L688.989 160.215L670.573 141.803ZM689.523 84.9507L707.94 66.5344L726.356 84.9507L707.94 103.367L689.523 84.9507ZM708.474 103.901L727.425 84.9507L745.462 66.9134V103.742L726.89 122.314L708.474 103.901ZM726.89 84.4163L708.319 65.8446V29.0121L726.356 47.0493L745.307 66L726.89 84.4163ZM708.474 28.0986L727.425 9.14793L745.462 -8.88933V27.9394L726.89 46.5111L708.474 28.0986ZM726.89 8.61353L708.319 -9.95816V-46.7907L726.356 -28.7534L745.307 -9.80276L726.89 8.61353ZM708.474 -47.7041L727.425 -66.6548L745.462 -84.6921V-47.8633L726.89 -29.2917L708.474 -47.7041ZM726.89 -67.1892L708.319 -85.7609V-122.593L726.356 -104.556L745.307 -85.6055L726.89 -67.1892ZM726.356 -66.6548L707.94 -48.2386L689.523 -66.6548L707.94 -85.0711L726.356 -66.6548ZM707.561 -85.7609L688.989 -67.1892L670.573 -85.6055L689.523 -104.556L707.561 -122.593V-85.7609ZM688.455 -66.6548L707.405 -47.7041L688.989 -29.2879L670.417 -47.8595V-84.6921L688.455 -66.6548ZM688.455 -28.7534L670.038 -10.3372L651.622 -28.7534L670.038 -47.1697L688.455 -28.7534ZM669.659 -47.8595L651.088 -29.2879L632.671 -47.7041L651.622 -66.6548L669.659 -84.6921V-47.8595ZM651.088 -67.1892L632.516 -85.7609V-122.593L650.553 -104.556L669.504 -85.6055L651.088 -67.1892ZM650.553 -66.6548L632.137 -48.2386L613.721 -66.6548L632.137 -85.0711L650.553 -66.6548ZM631.758 -85.7609L613.186 -67.1892L594.77 -85.6055L613.721 -104.556L631.758 -122.593V-85.7609ZM612.652 -66.6548L631.602 -47.7041L613.186 -29.2879L594.614 -47.8595V-84.6921L612.652 -66.6548ZM612.652 -28.7534L594.235 -10.3372L575.819 -28.7534L594.235 -47.1697L612.652 -28.7534ZM593.856 -47.8595L575.285 -29.2879L556.868 -47.7041L575.819 -66.6548L593.856 -84.6921V-47.8595ZM575.285 -67.1892L556.713 -85.7609V-122.593L574.75 -104.556L593.701 -85.6055L575.285 -67.1892ZM574.75 -66.6548L556.334 -48.2386L537.918 -66.6548L556.334 -85.0711L574.75 -66.6548ZM555.955 -85.7609L537.383 -67.1892L518.967 -85.6055L537.918 -104.556L555.955 -122.593V-85.7609ZM536.849 -66.6548L555.8 -47.7041L537.383 -29.2879L518.812 -47.8595V-84.6921L536.849 -66.6548ZM536.849 -28.7534L518.433 -10.3372L500.016 -28.7534L518.433 -47.1697L536.849 -28.7534ZM518.054 -47.8595L499.482 -29.2879L481.066 -47.7041L500.016 -66.6548L518.054 -84.6921V-47.8595ZM499.482 -67.1892L480.91 -85.7609V-122.593L498.948 -104.556L517.898 -85.6055L499.482 -67.1892ZM498.948 -66.6548L480.531 -48.2386L462.115 -66.6548L480.531 -85.0711L498.948 -66.6548ZM480.152 -85.7609L461.581 -67.1892L443.164 -85.6055L462.115 -104.556L480.152 -122.593V-85.7609ZM461.046 -66.6548L479.997 -47.7041L461.581 -29.2879L443.009 -47.8595V-84.6921L461.046 -66.6548ZM461.046 -28.7534L442.63 -10.3372L424.214 -28.7534L442.63 -47.1697L461.046 -28.7534ZM442.251 -47.8595L423.679 -29.2879L405.263 -47.7041L424.214 -66.6548L442.251 -84.6921V-47.8595ZM423.679 -67.1892L405.108 -85.7609V-122.593L423.145 -104.556L442.096 -85.6055L423.679 -67.1892ZM423.145 -66.6548L404.729 -48.2386L386.312 -66.6548L404.729 -85.0711L423.145 -66.6548ZM404.35 -85.7609L385.778 -67.1892L367.362 -85.6055L386.312 -104.556L404.35 -122.593V-85.7609ZM385.243 -66.6548L404.194 -47.7041L385.778 -29.2879L367.206 -47.8595V-84.6921L385.243 -66.6548ZM385.243 -28.7534L366.827 -10.3372L348.411 -28.7534L366.827 -47.1697L385.243 -28.7534ZM385.243 47.0493L366.827 65.4656L348.411 47.0493L366.827 28.633L385.243 47.0493ZM385.243 122.852L366.827 141.268L348.411 122.852L366.827 104.436L385.243 122.852ZM385.243 198.655L366.827 217.071L348.411 198.655L366.827 180.239L385.243 198.655ZM386.316 198.655L404.35 180.618V217.446L385.778 236.018L367.362 217.606L386.316 198.655ZM386.316 160.753L404.729 142.337L423.145 160.753L404.729 179.17L386.316 160.753ZM405.108 180.618L423.145 198.655L442.096 217.606L423.679 236.022L405.108 217.45V180.618ZM424.214 198.655L442.63 180.239L461.046 198.655L442.63 217.071L424.214 198.655ZM462.115 198.655L480.152 180.618V217.446L461.581 236.018L443.164 217.606L462.115 198.655ZM462.115 160.753L480.531 142.337L498.948 160.753L480.531 179.17L462.115 160.753ZM480.91 180.618L498.948 198.655L517.898 217.606L499.482 236.022L480.91 217.45V180.618ZM500.016 198.655L518.433 180.239L536.849 198.655L518.433 217.071L500.016 198.655ZM537.918 198.655L555.955 180.618V217.446L537.383 236.018L518.967 217.606L537.918 198.655ZM537.918 160.753L556.334 142.337L574.75 160.753L556.334 179.17L537.918 160.753ZM556.713 180.618L574.75 198.655L593.701 217.606L575.285 236.022L556.713 217.45V180.618ZM575.819 198.655L594.235 180.239L612.652 198.655L594.235 217.071L575.819 198.655ZM613.721 198.655L631.758 180.618V217.446L613.186 236.018L594.77 217.606L613.721 198.655ZM613.721 160.753L632.137 142.337L650.553 160.753L632.137 179.17L613.721 160.753ZM632.516 180.618L650.553 198.655L669.504 217.606L651.088 236.022L632.516 217.45V180.618ZM651.622 198.655L670.038 180.239L688.455 198.655L670.038 217.071L651.622 198.655ZM689.523 198.655L707.561 180.618V217.446L688.989 236.018L670.573 217.606L689.523 198.655ZM689.523 160.753L707.94 142.337L726.356 160.753L707.94 179.17L689.523 160.753ZM708.319 180.618L726.356 198.655L745.307 217.606L726.89 236.022L708.319 217.45V180.618ZM727.425 198.655L745.841 180.239L764.257 198.655L745.841 217.071L727.425 198.655ZM727.425 122.852L745.841 104.436L764.257 122.852L745.841 141.268L727.425 122.852ZM727.425 47.0493L745.841 28.633L764.257 47.0493L745.841 65.4656L727.425 47.0493ZM727.425 -28.7534L745.841 -47.1697L764.257 -28.7534L745.841 -10.3372L727.425 -28.7534ZM727.425 -104.556L745.841 -122.972L764.257 -104.556L745.841 -86.1399L727.425 -104.556ZM727.425 -142.458L745.462 -160.495V-123.662L726.89 -105.091L708.474 -123.507L727.425 -142.458ZM707.94 -160.874L726.356 -142.458L707.94 -124.041L689.523 -142.458L707.94 -160.874ZM670.417 -160.495L688.455 -142.458L707.405 -123.507L688.989 -105.091L670.417 -123.662V-160.495ZM688.455 -104.556L670.038 -86.1399L651.622 -104.556L670.038 -122.972L688.455 -104.556ZM651.622 -142.458L669.659 -160.495V-123.662L651.088 -105.091L632.671 -123.507L651.622 -142.458ZM632.137 -160.874L650.553 -142.458L632.137 -124.041L613.721 -142.458L632.137 -160.874ZM594.614 -160.495L612.652 -142.458L631.602 -123.507L613.186 -105.091L594.614 -123.662V-160.495ZM612.652 -104.556L594.235 -86.1399L575.819 -104.556L594.235 -122.972L612.652 -104.556ZM575.819 -142.458L593.856 -160.495V-123.662L575.285 -105.091L556.868 -123.507L575.819 -142.458ZM556.334 -160.874L574.75 -142.458L556.334 -124.041L537.918 -142.458L556.334 -160.874ZM518.812 -160.495L536.849 -142.458L555.8 -123.507L537.383 -105.091L518.812 -123.662V-160.495ZM536.849 -104.556L518.433 -86.1399L500.016 -104.556L518.433 -122.972L536.849 -104.556ZM500.016 -142.458L518.054 -160.495V-123.662L499.482 -105.091L481.066 -123.507L500.016 -142.458ZM480.531 -160.874L498.948 -142.458L480.531 -124.041L462.115 -142.458L480.531 -160.874ZM443.009 -160.495L461.046 -142.458L479.997 -123.507L461.581 -105.091L443.009 -123.662V-160.495ZM461.046 -104.556L442.63 -86.1399L424.214 -104.556L442.63 -122.972L461.046 -104.556ZM424.214 -142.458L442.251 -160.495V-123.662L423.679 -105.091L405.263 -123.507L424.214 -142.458ZM404.729 -160.874L423.145 -142.458L404.729 -124.041L386.312 -142.458L404.729 -160.874ZM367.206 -160.495L385.243 -142.458L404.194 -123.507L385.778 -105.091L367.206 -123.662V-160.495ZM385.243 -104.556L366.827 -86.1399L348.411 -104.556L366.827 -122.972L385.243 -104.556ZM348.411 -142.458L366.448 -160.495V-123.662L347.876 -105.091L329.46 -123.507L348.411 -142.458ZM329.305 -85.7609V-122.593L347.342 -104.556L366.293 -85.6055L347.876 -67.1892L329.305 -85.7609ZM348.411 -66.6548L366.448 -84.6921V-47.8633L347.876 -29.2917L329.46 -47.7041L348.411 -66.6548ZM329.305 -9.95816V-46.7907L347.342 -28.7534L366.293 -9.80276L347.876 8.61353L329.305 -9.95816ZM348.411 9.14793L366.448 -8.88933V27.9394L347.876 46.5111L329.46 28.0986L348.411 9.14793ZM329.305 65.8446V29.0121L347.342 47.0493L366.293 66L347.876 84.4163L329.305 65.8446ZM348.411 84.9507L366.448 66.9134V103.742L347.876 122.314L329.46 103.901L348.411 84.9507ZM329.305 141.647V104.815L347.342 122.852L366.293 141.803L347.876 160.219L329.305 141.647ZM348.411 160.753L366.448 142.716V179.545L347.876 198.117L329.46 179.704L348.411 160.753ZM329.305 217.45V180.618L347.342 198.655L366.293 217.606L347.876 236.022L329.305 217.45ZM329.46 255.507L348.411 236.556L366.448 218.519V255.348L347.876 273.919L329.46 255.507ZM366.827 292.874L348.411 274.458L366.827 256.041L385.243 274.458L366.827 292.874ZM385.778 273.923L367.206 255.352V218.523L385.243 236.556L404.194 255.507L385.778 273.923ZM404.729 254.973L386.312 236.556L404.729 218.14L423.145 236.556L404.729 254.973ZM405.263 255.507L424.214 236.556L442.251 218.519V255.348L423.679 273.919L405.263 255.507ZM442.63 292.874L424.214 274.458L442.63 256.041L461.046 274.458L442.63 292.874ZM461.581 273.923L443.009 255.352V218.523L461.046 236.556L479.997 255.507L461.581 273.923ZM480.531 254.973L462.115 236.556L480.531 218.14L498.948 236.556L480.531 254.973ZM481.066 255.507L500.016 236.556L518.054 218.519V255.348L499.482 273.919L481.066 255.507ZM518.433 292.874L500.016 274.458L518.433 256.041L536.849 274.458L518.433 292.874ZM537.383 273.923L518.812 255.352V218.523L536.849 236.556L555.8 255.507L537.383 273.923ZM556.334 254.973L537.918 236.556L556.334 218.14L574.75 236.556L556.334 254.973ZM556.868 255.507L575.819 236.556L593.856 218.519V255.348L575.285 273.919L556.868 255.507ZM594.235 292.874L575.819 274.458L594.235 256.041L612.652 274.458L594.235 292.874ZM613.186 273.923L594.614 255.352V218.523L612.652 236.556L631.602 255.507L613.186 273.923ZM632.137 254.973L613.721 236.556L632.137 218.14L650.553 236.556L632.137 254.973ZM632.671 255.507L651.622 236.556L669.659 218.519V255.348L651.088 273.919L632.671 255.507ZM670.038 292.874L651.622 274.458L670.038 256.041L688.455 274.458L670.038 292.874ZM688.989 273.923L670.417 255.352V218.523L688.455 236.556L707.405 255.507L688.989 273.923ZM707.94 254.973L689.523 236.556L707.94 218.14L726.356 236.556L707.94 254.973ZM708.474 255.507L727.425 236.556L745.462 218.519V255.348L726.89 273.919L708.474 255.507ZM745.841 292.874L727.425 274.458L745.841 256.041L764.257 274.458L745.841 292.874ZM783.208 255.507L764.792 273.923L746.22 255.352V218.523L764.257 236.56L783.208 255.507ZM783.363 217.45L764.792 236.022L746.375 217.606L765.326 198.655L783.363 180.618V217.45ZM783.208 179.704L764.792 198.12L746.22 179.549V142.716L764.257 160.753L783.208 179.704ZM783.363 141.647L764.792 160.219L746.375 141.803L765.326 122.852L783.363 104.815V141.647ZM783.208 103.901L764.792 122.318L746.22 103.746V66.9134L764.257 84.9507L783.208 103.901ZM783.363 65.8446L764.792 84.4163L746.375 66L765.326 47.0493L783.363 29.0121V65.8446ZM783.208 28.0986L764.792 46.5149L746.22 27.9432V-8.88933L764.257 9.14793L783.208 28.0986ZM783.363 -9.95816L764.792 8.61353L746.375 -9.80276L765.326 -28.7534L783.363 -46.7907V-9.95816ZM783.208 -47.7041L764.792 -29.2879L746.22 -47.8595V-84.6921L764.257 -66.6548L783.208 -47.7041ZM783.363 -85.7609L764.792 -67.1892L746.375 -85.6055L765.326 -104.556L783.363 -122.593V-85.7609ZM783.208 -123.507L764.792 -105.091L746.22 -123.662V-160.495L764.257 -142.458L783.208 -123.507Z" fill="url(#paint1_linear)"/>
</g>
<g clip-path="url(#clip2)">
<path d="M1239.36 -161.408H1238.82L1220.41 -142.992L1201.99 -161.408H1200.92L1182.5 -142.992L1164.09 -161.408H1163.02L1144.6 -142.992L1126.19 -161.408H1125.11L1106.7 -142.992L1088.29 -161.408H1087.21L1068.8 -142.992L1050.38 -161.408H1049.31L1030.9 -142.992L1012.48 -161.408H1011.41L992.998 -142.992L974.581 -161.408H973.509L955.096 -142.992L936.68 -161.408H935.607L917.195 -142.992L898.779 -161.408H897.706L879.293 -142.992L860.877 -161.408H859.805L841.392 -142.992L822.976 -161.408H821.907L803.491 -142.992L785.074 -161.408H784.54V-160.874L802.956 -142.458L784.54 -124.041V-85.0711L802.956 -66.6548L784.54 -48.2386V-9.26836L802.956 9.14793L784.54 27.5642V66.5344L802.956 84.9507L784.54 103.367V142.337L802.956 160.753L784.54 179.17V218.144L802.956 236.556L784.54 254.973V293.408H785.074L784.919 293.253V256.424L802.956 274.458L821.907 293.408H822.98L841.93 274.458L859.964 256.42V293.249L859.808 293.405H860.881L860.726 293.249V256.42L878.759 274.458L897.71 293.408H898.782L917.733 274.458L935.767 256.42V293.249L935.611 293.405H936.684L936.528 293.249V256.42L954.562 274.458L973.513 293.408H974.585L993.536 274.458L1011.57 256.42V293.249L1011.41 293.405H1012.49L1012.33 293.249V256.42L1030.36 274.458L1049.32 293.408H1050.39L1069.34 274.458L1087.37 256.42V293.249L1087.22 293.405H1088.29L1088.13 293.249V256.42L1106.17 274.458L1125.12 293.408H1126.19L1145.14 274.458L1163.17 256.42V293.249L1163.02 293.405H1164.09L1163.94 293.249V256.42L1181.97 274.458L1200.92 293.408H1202L1220.95 274.458L1238.99 256.42V293.249L1238.83 293.405H1239.36V254.973L1220.94 236.556L1239.36 218.14V179.17L1220.94 160.753L1239.36 142.337V103.367L1220.94 84.9507L1239.36 66.5344V27.5642L1220.94 9.14793L1239.36 -9.26836V-48.2386L1220.94 -66.6548L1239.36 -85.0711V-124.041L1220.94 -142.458L1239.36 -160.874V-161.408ZM1182.5 160.219L1163.93 141.647V104.815L1181.97 122.852L1200.92 141.803L1182.5 160.219ZM1201.08 142.72V179.549L1182.5 198.12L1164.09 179.704L1183.04 160.753L1201.08 142.72ZM822.976 141.803L841.927 122.852L859.964 104.815V141.644L841.392 160.215L822.976 141.803ZM859.805 179.704L841.392 198.12L822.82 179.549V142.716L840.858 160.753L859.805 179.704ZM1126.19 66L1145.14 47.0493L1163.17 29.0121V65.8408L1144.6 84.4125L1126.19 66ZM1163.02 103.901L1144.6 122.318L1126.03 103.746V66.9134L1144.07 84.9507L1163.02 103.901ZM1163.17 -9.95816L1144.6 8.61353L1126.19 -9.80276L1145.14 -28.7534L1163.17 -46.7907V-9.95816ZM1163.55 -9.26456L1181.97 9.14793L1163.55 27.5642L1145.14 9.14793L1163.55 -9.26456ZM1144.07 9.14793L1163.02 28.0986L1144.6 46.5149L1126.03 27.9432V-8.88933L1144.07 9.14793ZM1144.07 47.0493L1125.65 65.4656L1107.24 47.0493L1125.65 28.633L1144.07 47.0493ZM1107.24 84.9507L1125.27 66.9134V103.742L1106.7 122.314L1088.29 103.901L1107.24 84.9507ZM1106.7 84.4163L1088.13 65.8446V29.0121L1106.17 47.0493L1125.12 66L1106.7 84.4163ZM1125.27 27.9432L1106.7 46.5149L1088.29 28.0986L1107.24 9.14793L1125.27 -8.88933V27.9432ZM1106.7 8.61353L1088.13 -9.95816V-46.7907L1106.17 -28.7534L1125.12 -9.80276L1106.7 8.61353ZM1106.17 9.14793L1087.75 27.5642L1069.33 9.14793L1087.75 -9.26836L1106.17 9.14793ZM1050.38 66L1069.33 47.0493L1087.37 29.0121V65.8408L1068.8 84.4125L1050.38 66ZM1087.21 103.901L1068.8 122.318L1050.23 103.746V66.9134L1068.27 84.9507L1087.21 103.901ZM1087.37 -9.95816L1068.8 8.61353L1050.38 -9.80276L1069.33 -28.7534L1087.37 -46.7907V-9.95816ZM1068.27 9.14793L1087.22 28.0986L1068.8 46.5149L1050.23 27.9432V-8.88933L1068.27 9.14793ZM1068.27 47.0493L1049.85 65.4656L1031.43 47.0493L1049.85 28.633L1068.27 47.0493ZM1031.43 84.9507L1049.47 66.9134V103.742L1030.9 122.314L1012.48 103.901L1031.43 84.9507ZM1030.9 84.4163L1012.33 65.8446V29.0121L1030.36 47.0493L1049.32 66L1030.9 84.4163ZM1049.47 27.9432L1030.9 46.5149L1012.48 28.0986L1031.43 9.14793L1049.47 -8.88933V27.9432ZM1030.9 8.61353L1012.33 -9.95816V-46.7907L1030.36 -28.7534L1049.32 -9.80276L1030.9 8.61353ZM1030.36 9.14793L1011.95 27.5642L993.532 9.14793L1011.95 -9.26836L1030.36 9.14793ZM974.581 66L993.532 47.0493L1011.57 29.0121V65.8408L992.998 84.4125L974.581 66ZM1011.41 103.901L992.998 122.318L974.426 103.746V66.9134L992.463 84.9507L1011.41 103.901ZM1011.57 -9.95816L992.998 8.61353L974.581 -9.80276L993.532 -28.7534L1011.57 -46.7907V-9.95816ZM992.463 9.14793L1011.41 28.0986L992.998 46.5149L974.426 27.9432V-8.88933L992.463 9.14793ZM992.463 47.0493L974.047 65.4656L955.631 47.0493L974.047 28.633L992.463 47.0493ZM955.631 84.9507L973.668 66.9134V103.742L955.096 122.314L936.68 103.901L955.631 84.9507ZM955.096 84.4163L936.525 65.8446V29.0121L954.562 47.0493L973.513 66L955.096 84.4163ZM973.668 27.9432L955.096 46.5149L936.68 28.0986L955.631 9.14793L973.668 -8.88933V27.9432ZM955.096 8.61353L936.525 -9.95816V-46.7907L954.562 -28.7534L973.513 -9.80276L955.096 8.61353ZM954.562 9.14793L936.146 27.5642L917.729 9.14793L936.146 -9.26836L954.562 9.14793ZM898.779 66L917.729 47.0493L935.767 29.0121V65.8408L917.195 84.4125L898.779 66ZM935.607 103.901L917.195 122.318L898.623 103.746V66.9134L916.66 84.9507L935.607 103.901ZM935.767 -9.95816L917.195 8.61353L898.779 -9.80276L917.729 -28.7534L935.767 -46.7907V-9.95816ZM916.66 9.14793L935.611 28.0986L917.195 46.5149L898.623 27.9432V-8.88933L916.66 9.14793ZM916.66 47.0493L898.244 65.4656L879.828 47.0493L898.244 28.633L916.66 47.0493ZM879.828 84.9507L897.865 66.9134V103.742L879.293 122.314L860.877 103.901L879.828 84.9507ZM879.293 84.4163L860.722 65.8446V29.0121L878.759 47.0493L897.71 66L879.293 84.4163ZM897.865 27.9432L879.293 46.5149L860.877 28.0986L879.828 9.14793L897.865 -8.88933V27.9432ZM879.293 8.61353L860.722 -9.95816V-46.7907L878.759 -28.7534L897.71 -9.80276L879.293 8.61353ZM878.759 9.14793L860.343 27.5642L841.927 9.14793L860.343 -9.26836L878.759 9.14793ZM859.964 -9.95816L841.392 8.61353L822.976 -9.80276L841.927 -28.7534L859.964 -46.7907V-9.95816ZM840.858 9.14793L859.808 28.0986L841.392 46.5149L822.82 27.9432V-8.88933L840.858 9.14793ZM841.93 47.0493L859.964 29.0121V65.8408L841.392 84.4125L822.976 66L841.93 47.0493ZM840.858 84.9507L859.808 103.901L841.392 122.318L822.82 103.746V66.9134L840.858 84.9507ZM841.93 84.9507L860.343 66.5344L878.759 84.9507L860.343 103.367L841.93 84.9507ZM860.722 104.815L878.759 122.852L897.71 141.803L879.293 160.219L860.722 141.647V104.815ZM879.828 160.753L897.865 142.716V179.545L879.293 198.117L860.877 179.704L879.828 160.753ZM879.828 122.852L898.244 104.436L916.66 122.852L898.244 141.268L879.828 122.852ZM898.623 142.716L916.66 160.753L935.611 179.704L917.195 198.12L898.623 179.549V142.716ZM898.779 141.803L917.729 122.852L935.767 104.815V141.644L917.195 160.215L898.779 141.803ZM917.729 84.9507L936.146 66.5344L954.562 84.9507L936.146 103.367L917.729 84.9507ZM936.525 104.815L954.562 122.852L973.513 141.803L955.096 160.219L936.525 141.647V104.815ZM955.631 160.753L973.668 142.716V179.545L955.096 198.117L936.68 179.704L955.631 160.753ZM955.631 122.852L974.047 104.436L992.463 122.852L974.047 141.268L955.631 122.852ZM974.426 142.716L992.463 160.753L1011.41 179.704L992.998 198.12L974.426 179.549V142.716ZM974.581 141.803L993.532 122.852L1011.57 104.815V141.644L992.998 160.215L974.581 141.803ZM993.532 84.9507L1011.95 66.5344L1030.36 84.9507L1011.95 103.367L993.532 84.9507ZM1012.33 104.815L1030.36 122.852L1049.32 141.803L1030.9 160.219L1012.33 141.647V104.815ZM1031.43 160.753L1049.47 142.716V179.545L1030.9 198.117L1012.48 179.704L1031.43 160.753ZM1031.43 122.852L1049.85 104.436L1068.27 122.852L1049.85 141.268L1031.43 122.852ZM1050.23 142.716L1068.27 160.753L1087.22 179.704L1068.8 198.12L1050.23 179.549V142.716ZM1050.38 141.803L1069.33 122.852L1087.37 104.815V141.644L1068.8 160.215L1050.38 141.803ZM1069.33 84.9507L1087.75 66.5344L1106.17 84.9507L1087.75 103.367L1069.33 84.9507ZM1088.13 104.815L1106.17 122.852L1125.12 141.803L1106.7 160.219L1088.13 141.647V104.815ZM1107.24 160.753L1125.27 142.716V179.545L1106.7 198.117L1088.29 179.704L1107.24 160.753ZM1107.24 122.852L1125.65 104.436L1144.07 122.852L1125.65 141.268L1107.24 122.852ZM1126.03 142.716L1144.07 160.753L1163.02 179.704L1144.6 198.12L1126.03 179.549V142.716ZM1126.19 141.803L1145.14 122.852L1163.17 104.815V141.644L1144.6 160.215L1126.19 141.803ZM1145.14 84.9507L1163.55 66.5344L1181.97 84.9507L1163.55 103.367L1145.14 84.9507ZM1164.09 103.901L1183.04 84.9507L1201.08 66.9134V103.742L1182.5 122.314L1164.09 103.901ZM1182.5 84.4163L1163.93 65.8446V29.0121L1181.97 47.0493L1200.92 66L1182.5 84.4163ZM1164.09 28.0986L1183.04 9.14793L1201.08 -8.88933V27.9394L1182.5 46.5111L1164.09 28.0986ZM1182.5 8.61353L1163.93 -9.95816V-46.7907L1181.97 -28.7534L1200.92 -9.80276L1182.5 8.61353ZM1164.09 -47.7041L1183.04 -66.6548L1201.08 -84.6921V-47.8633L1182.5 -29.2917L1164.09 -47.7041ZM1182.5 -67.1892L1163.93 -85.7609V-122.593L1181.97 -104.556L1200.92 -85.6055L1182.5 -67.1892ZM1181.97 -66.6548L1163.55 -48.2386L1145.14 -66.6548L1163.55 -85.0711L1181.97 -66.6548ZM1163.17 -85.7609L1144.6 -67.1892L1126.19 -85.6055L1145.14 -104.556L1163.17 -122.593V-85.7609ZM1144.07 -66.6548L1163.02 -47.7041L1144.6 -29.2879L1126.03 -47.8595V-84.6921L1144.07 -66.6548ZM1144.07 -28.7534L1125.65 -10.3372L1107.24 -28.7534L1125.65 -47.1697L1144.07 -28.7534ZM1125.27 -47.8595L1106.7 -29.2879L1088.29 -47.7041L1107.24 -66.6548L1125.27 -84.6921V-47.8595ZM1106.7 -67.1892L1088.13 -85.7609V-122.593L1106.17 -104.556L1125.12 -85.6055L1106.7 -67.1892ZM1106.17 -66.6548L1087.75 -48.2386L1069.33 -66.6548L1087.75 -85.0711L1106.17 -66.6548ZM1087.37 -85.7609L1068.8 -67.1892L1050.38 -85.6055L1069.33 -104.556L1087.37 -122.593V-85.7609ZM1068.27 -66.6548L1087.22 -47.7041L1068.8 -29.2879L1050.23 -47.8595V-84.6921L1068.27 -66.6548ZM1068.27 -28.7534L1049.85 -10.3372L1031.43 -28.7534L1049.85 -47.1697L1068.27 -28.7534ZM1049.47 -47.8595L1030.9 -29.2879L1012.48 -47.7041L1031.43 -66.6548L1049.47 -84.6921V-47.8595ZM1030.9 -67.1892L1012.33 -85.7609V-122.593L1030.36 -104.556L1049.32 -85.6055L1030.9 -67.1892ZM1030.36 -66.6548L1011.95 -48.2386L993.532 -66.6548L1011.95 -85.0711L1030.36 -66.6548ZM1011.57 -85.7609L992.998 -67.1892L974.581 -85.6055L993.532 -104.556L1011.57 -122.593V-85.7609ZM992.463 -66.6548L1011.41 -47.7041L992.998 -29.2879L974.426 -47.8595V-84.6921L992.463 -66.6548ZM992.463 -28.7534L974.047 -10.3372L955.631 -28.7534L974.047 -47.1697L992.463 -28.7534ZM973.668 -47.8595L955.096 -29.2879L936.68 -47.7041L955.631 -66.6548L973.668 -84.6921V-47.8595ZM955.096 -67.1892L936.525 -85.7609V-122.593L954.562 -104.556L973.513 -85.6055L955.096 -67.1892ZM954.562 -66.6548L936.146 -48.2386L917.729 -66.6548L936.146 -85.0711L954.562 -66.6548ZM935.767 -85.7609L917.195 -67.1892L898.779 -85.6055L917.729 -104.556L935.767 -122.593V-85.7609ZM916.66 -66.6548L935.611 -47.7041L917.195 -29.2879L898.623 -47.8595V-84.6921L916.66 -66.6548ZM916.66 -28.7534L898.244 -10.3372L879.828 -28.7534L898.244 -47.1697L916.66 -28.7534ZM897.865 -47.8595L879.293 -29.2879L860.877 -47.7041L879.828 -66.6548L897.865 -84.6921V-47.8595ZM879.293 -67.1892L860.722 -85.7609V-122.593L878.759 -104.556L897.71 -85.6055L879.293 -67.1892ZM878.759 -66.6548L860.343 -48.2386L841.927 -66.6548L860.343 -85.0711L878.759 -66.6548ZM859.964 -85.7609L841.392 -67.1892L822.976 -85.6055L841.927 -104.556L859.964 -122.593V-85.7609ZM840.858 -66.6548L859.808 -47.7041L841.392 -29.2879L822.82 -47.8595V-84.6921L840.858 -66.6548ZM840.858 -28.7534L822.441 -10.3372L804.025 -28.7534L822.441 -47.1697L840.858 -28.7534ZM840.858 47.0493L822.441 65.4656L804.025 47.0493L822.441 28.633L840.858 47.0493ZM840.858 122.852L822.441 141.268L804.025 122.852L822.441 104.436L840.858 122.852ZM840.858 198.655L822.441 217.071L804.025 198.655L822.441 180.239L840.858 198.655ZM841.93 198.655L859.964 180.618V217.446L841.392 236.018L822.976 217.606L841.93 198.655ZM841.93 160.753L860.343 142.337L878.759 160.753L860.343 179.17L841.93 160.753ZM860.722 180.618L878.759 198.655L897.71 217.606L879.293 236.022L860.722 217.45V180.618ZM879.828 198.655L898.244 180.239L916.66 198.655L898.244 217.071L879.828 198.655ZM917.729 198.655L935.767 180.618V217.446L917.195 236.018L898.779 217.606L917.729 198.655ZM917.729 160.753L936.146 142.337L954.562 160.753L936.146 179.17L917.729 160.753ZM936.525 180.618L954.562 198.655L973.513 217.606L955.096 236.022L936.525 217.45V180.618ZM955.631 198.655L974.047 180.239L992.463 198.655L974.047 217.071L955.631 198.655ZM993.532 198.655L1011.57 180.618V217.446L992.998 236.018L974.581 217.606L993.532 198.655ZM993.532 160.753L1011.95 142.337L1030.36 160.753L1011.95 179.17L993.532 160.753ZM1012.33 180.618L1030.36 198.655L1049.32 217.606L1030.9 236.022L1012.33 217.45V180.618ZM1031.43 198.655L1049.85 180.239L1068.27 198.655L1049.85 217.071L1031.43 198.655ZM1069.33 198.655L1087.37 180.618V217.446L1068.8 236.018L1050.38 217.606L1069.33 198.655ZM1069.33 160.753L1087.75 142.337L1106.17 160.753L1087.75 179.17L1069.33 160.753ZM1088.13 180.618L1106.17 198.655L1125.12 217.606L1106.7 236.022L1088.13 217.45V180.618ZM1107.24 198.655L1125.65 180.239L1144.07 198.655L1125.65 217.071L1107.24 198.655ZM1145.14 198.655L1163.17 180.618V217.446L1144.6 236.018L1126.19 217.606L1145.14 198.655ZM1145.14 160.753L1163.55 142.337L1181.97 160.753L1163.55 179.17L1145.14 160.753ZM1163.93 180.618L1181.97 198.655L1200.92 217.606L1182.5 236.022L1163.93 217.45V180.618ZM1183.04 198.655L1201.46 180.239L1219.87 198.655L1201.46 217.071L1183.04 198.655ZM1183.04 122.852L1201.46 104.436L1219.87 122.852L1201.46 141.268L1183.04 122.852ZM1183.04 47.0493L1201.46 28.633L1219.87 47.0493L1201.46 65.4656L1183.04 47.0493ZM1183.04 -28.7534L1201.46 -47.1697L1219.87 -28.7534L1201.46 -10.3372L1183.04 -28.7534ZM1183.04 -104.556L1201.46 -122.972L1219.87 -104.556L1201.46 -86.1399L1183.04 -104.556ZM1183.04 -142.458L1201.08 -160.495V-123.662L1182.5 -105.091L1164.09 -123.507L1183.04 -142.458ZM1163.55 -160.874L1181.97 -142.458L1163.55 -124.041L1145.14 -142.458L1163.55 -160.874ZM1126.03 -160.495L1144.07 -142.458L1163.02 -123.507L1144.6 -105.091L1126.03 -123.662V-160.495ZM1144.07 -104.556L1125.65 -86.1399L1107.24 -104.556L1125.65 -122.972L1144.07 -104.556ZM1107.24 -142.458L1125.27 -160.495V-123.662L1106.7 -105.091L1088.29 -123.507L1107.24 -142.458ZM1087.75 -160.874L1106.17 -142.458L1087.75 -124.041L1069.33 -142.458L1087.75 -160.874ZM1050.23 -160.495L1068.27 -142.458L1087.22 -123.507L1068.8 -105.091L1050.23 -123.662V-160.495ZM1068.27 -104.556L1049.85 -86.1399L1031.43 -104.556L1049.85 -122.972L1068.27 -104.556ZM1031.43 -142.458L1049.47 -160.495V-123.662L1030.9 -105.091L1012.48 -123.507L1031.43 -142.458ZM1011.95 -160.874L1030.36 -142.458L1011.95 -124.041L993.532 -142.458L1011.95 -160.874ZM974.426 -160.495L992.463 -142.458L1011.41 -123.507L992.998 -105.091L974.426 -123.662V-160.495ZM992.463 -104.556L974.047 -86.1399L955.631 -104.556L974.047 -122.972L992.463 -104.556ZM955.631 -142.458L973.668 -160.495V-123.662L955.096 -105.091L936.68 -123.507L955.631 -142.458ZM936.146 -160.874L954.562 -142.458L936.146 -124.041L917.729 -142.458L936.146 -160.874ZM898.623 -160.495L916.66 -142.458L935.611 -123.507L917.195 -105.091L898.623 -123.662V-160.495ZM916.66 -104.556L898.244 -86.1399L879.828 -104.556L898.244 -122.972L916.66 -104.556ZM879.828 -142.458L897.865 -160.495V-123.662L879.293 -105.091L860.877 -123.507L879.828 -142.458ZM860.343 -160.874L878.759 -142.458L860.343 -124.041L841.927 -142.458L860.343 -160.874ZM822.82 -160.495L840.858 -142.458L859.808 -123.507L841.392 -105.091L822.82 -123.662V-160.495ZM840.858 -104.556L822.441 -86.1399L804.025 -104.556L822.441 -122.972L840.858 -104.556ZM804.025 -142.458L822.062 -160.495V-123.662L803.491 -105.091L785.074 -123.507L804.025 -142.458ZM784.919 -85.7609V-122.593L802.956 -104.556L821.907 -85.6055L803.491 -67.1892L784.919 -85.7609ZM804.025 -66.6548L822.062 -84.6921V-47.8633L803.491 -29.2917L785.074 -47.7041L804.025 -66.6548ZM784.919 -9.95816V-46.7907L802.956 -28.7534L821.907 -9.80276L803.491 8.61353L784.919 -9.95816ZM804.025 9.14793L822.062 -8.88933V27.9394L803.491 46.5111L785.074 28.0986L804.025 9.14793ZM784.919 65.8446V29.0121L802.956 47.0493L821.907 66L803.491 84.4163L784.919 65.8446ZM804.025 84.9507L822.062 66.9134V103.742L803.491 122.314L785.074 103.901L804.025 84.9507ZM784.919 141.647V104.815L802.956 122.852L821.907 141.803L803.491 160.219L784.919 141.647ZM804.025 160.753L822.062 142.716V179.545L803.491 198.117L785.074 179.704L804.025 160.753ZM784.919 217.45V180.618L802.956 198.655L821.907 217.606L803.491 236.022L784.919 217.45ZM785.074 255.507L804.025 236.556L822.062 218.519V255.348L803.491 273.919L785.074 255.507ZM822.441 292.874L804.025 274.458L822.441 256.041L840.858 274.458L822.441 292.874ZM841.392 273.923L822.82 255.352V218.523L840.858 236.556L859.808 255.507L841.392 273.923ZM860.343 254.973L841.927 236.556L860.343 218.14L878.759 236.556L860.343 254.973ZM860.877 255.507L879.828 236.556L897.865 218.519V255.348L879.293 273.919L860.877 255.507ZM898.244 292.874L879.828 274.458L898.244 256.041L916.66 274.458L898.244 292.874ZM917.195 273.923L898.623 255.352V218.523L916.66 236.556L935.611 255.507L917.195 273.923ZM936.146 254.973L917.729 236.556L936.146 218.14L954.562 236.556L936.146 254.973ZM936.68 255.507L955.631 236.556L973.668 218.519V255.348L955.096 273.919L936.68 255.507ZM974.047 292.874L955.631 274.458L974.047 256.041L992.463 274.458L974.047 292.874ZM992.998 273.923L974.426 255.352V218.523L992.463 236.556L1011.41 255.507L992.998 273.923ZM1011.95 254.973L993.532 236.556L1011.95 218.14L1030.36 236.556L1011.95 254.973ZM1012.48 255.507L1031.43 236.556L1049.47 218.519V255.348L1030.9 273.919L1012.48 255.507ZM1049.85 292.874L1031.43 274.458L1049.85 256.041L1068.27 274.458L1049.85 292.874ZM1068.8 273.923L1050.23 255.352V218.523L1068.27 236.556L1087.22 255.507L1068.8 273.923ZM1087.75 254.973L1069.33 236.556L1087.75 218.14L1106.17 236.556L1087.75 254.973ZM1088.29 255.507L1107.24 236.556L1125.27 218.519V255.348L1106.7 273.919L1088.29 255.507ZM1125.65 292.874L1107.24 274.458L1125.65 256.041L1144.07 274.458L1125.65 292.874ZM1144.6 273.923L1126.03 255.352V218.523L1144.07 236.556L1163.02 255.507L1144.6 273.923ZM1163.55 254.973L1145.14 236.556L1163.55 218.14L1181.97 236.556L1163.55 254.973ZM1164.09 255.507L1183.04 236.556L1201.08 218.519V255.348L1182.5 273.919L1164.09 255.507ZM1201.46 292.874L1183.04 274.458L1201.46 256.041L1219.87 274.458L1201.46 292.874ZM1238.82 255.507L1220.41 273.923L1201.83 255.352V218.523L1219.87 236.56L1238.82 255.507ZM1238.98 217.45L1220.41 236.022L1201.99 217.606L1220.94 198.655L1238.98 180.618V217.45ZM1238.82 179.704L1220.41 198.12L1201.83 179.549V142.716L1219.87 160.753L1238.82 179.704ZM1238.98 141.647L1220.41 160.219L1201.99 141.803L1220.94 122.852L1238.98 104.815V141.647ZM1238.82 103.901L1220.41 122.318L1201.83 103.746V66.9134L1219.87 84.9507L1238.82 103.901ZM1238.98 65.8446L1220.41 84.4163L1201.99 66L1220.94 47.0493L1238.98 29.0121V65.8446ZM1238.82 28.0986L1220.41 46.5149L1201.83 27.9432V-8.88933L1219.87 9.14793L1238.82 28.0986ZM1238.98 -9.95816L1220.41 8.61353L1201.99 -9.80276L1220.94 -28.7534L1238.98 -46.7907V-9.95816ZM1238.82 -47.7041L1220.41 -29.2879L1201.83 -47.8595V-84.6921L1219.87 -66.6548L1238.82 -47.7041ZM1238.98 -85.7609L1220.41 -67.1892L1201.99 -85.6055L1220.94 -104.556L1238.98 -122.593V-85.7609ZM1238.82 -123.507L1220.41 -105.091L1201.83 -123.662V-160.495L1219.87 -142.458L1238.82 -123.507Z" fill="url(#paint2_linear)"/>
</g>
</g>
<defs>
<linearGradient id="paint0_linear" x1="-125.891" y1="66" x2="328.926" y2="66" gradientUnits="userSpaceOnUse">
<stop stop-color="#BE965D"/>
<stop offset="0.28" stop-color="#976F40"/>
<stop offset="0.43" stop-color="#C99B61"/>
<stop offset="0.56" stop-color="#F0BE7B"/>
<stop offset="0.63" stop-color="#FFCB85"/>
<stop offset="0.71" stop-color="#EEBC79"/>
<stop offset="0.87" stop-color="#C0935B"/>
<stop offset="1" stop-color="#976F40"/>
</linearGradient>
<linearGradient id="paint1_linear" x1="328.926" y1="66" x2="783.742" y2="66" gradientUnits="userSpaceOnUse">
<stop stop-color="#BE965D"/>
<stop offset="0.28" stop-color="#976F40"/>
<stop offset="0.43" stop-color="#C99B61"/>
<stop offset="0.56" stop-color="#F0BE7B"/>
<stop offset="0.63" stop-color="#FFCB85"/>
<stop offset="0.71" stop-color="#EEBC79"/>
<stop offset="0.87" stop-color="#C0935B"/>
<stop offset="1" stop-color="#976F40"/>
</linearGradient>
<linearGradient id="paint2_linear" x1="784.54" y1="66" x2="1239.36" y2="66" gradientUnits="userSpaceOnUse">
<stop stop-color="#BE965D"/>
<stop offset="0.28" stop-color="#976F40"/>
<stop offset="0.43" stop-color="#C99B61"/>
<stop offset="0.56" stop-color="#F0BE7B"/>
<stop offset="0.63" stop-color="#FFCB85"/>
<stop offset="0.71" stop-color="#EEBC79"/>
<stop offset="0.87" stop-color="#C0935B"/>
<stop offset="1" stop-color="#976F40"/>
</linearGradient>
<clipPath id="clip0">
<rect width="454.817" height="454.817" fill="white" transform="translate(-125.891 -161.408)"/>
</clipPath>
<clipPath id="clip1">
<rect width="454.817" height="454.817" fill="white" transform="translate(328.926 -161.408)"/>
</clipPath>
<clipPath id="clip2">
<rect width="454.817" height="454.817" fill="white" transform="translate(784.54 -161.408)"/>
</clipPath>
</defs>
</svg>
