<svg width="291" height="214" viewBox="0 0 291 214" fill="none" xmlns="http://www.w3.org/2000/svg">
<path opacity="0.5" d="M309 0H308.636L296.083 11.5127L283.531 0H282.8L270.25 11.5127L257.698 0H256.966L244.417 11.5127L231.864 0H231.133L218.583 11.5127L206.031 0H205.3L192.75 11.5127L180.198 0H179.466L166.917 11.5127L154.364 0H153.633L141.083 11.5127L128.531 0H127.8L115.25 11.5127L102.698 0H101.966L89.4167 11.5127L76.8643 0H76.1332L63.5833 11.5127L51.0309 0H50.2998L37.75 11.5127L25.1976 0H24.4691L11.9167 11.5127L-0.63575 0H-1V0.334078L11.5524 11.8467L-1 23.3594V47.721L11.5524 59.2337L-1 70.7463V95.1079L11.5524 106.621L-1 118.133V142.495L11.5524 154.008L-1 165.52V189.882L11.5524 201.394L-1 212.907V237.271L11.5524 248.781L-1 260.294V284.322H-0.63575L-0.741667 284.224V261.201L11.5524 272.475L24.4691 284.322H25.2002L38.1168 272.475L50.4083 261.199V284.222L50.3024 284.319H51.0335L50.9276 284.222V261.199L63.2191 272.475L76.1357 284.322H76.8668L89.7835 272.475L102.075 261.199V284.222L101.969 284.319H102.7L102.594 284.222V261.199L114.886 272.475L127.802 284.322H128.533L141.45 272.475L153.742 261.199V284.222L153.636 284.319H154.367L154.261 284.222V261.199L166.552 272.475L179.469 284.322H180.2L193.117 272.475L205.408 261.199V284.222L205.302 284.319H206.033L205.928 284.222V261.199L218.219 272.475L231.136 284.322H231.867L244.783 272.475L257.075 261.199V284.222L256.969 284.319H257.7L257.594 284.222V261.199L269.888 272.475L282.805 284.322H283.536L296.453 272.475L308.747 261.199V284.222L308.641 284.319H309V260.294L296.448 248.781L309 237.269V212.907L296.448 201.394L309 189.882V165.52L296.448 154.008L309 142.495V118.133L296.448 106.621L309 95.1079V70.7463L296.448 59.2337L309 47.721V23.3594L296.448 11.8467L309 0.334078V0ZM270.25 201.06L257.592 189.451V166.425L269.886 177.701L282.802 189.548L270.25 201.06ZM282.908 190.121V213.144L270.25 224.754L257.698 213.241L270.614 201.394L282.908 190.121ZM25.1976 189.548L38.1143 177.701L50.4083 166.425V189.448L37.75 201.058L25.1976 189.548ZM50.2998 213.241L37.75 224.754L25.0917 213.144V190.119L37.3857 201.394L50.2998 213.241ZM231.864 142.161L244.781 130.314L257.075 119.038V142.061L244.417 153.671L231.864 142.161ZM256.966 165.854L244.417 177.367L231.758 165.757V142.732L244.052 154.008L256.966 165.854ZM257.075 94.6767L244.417 106.286L231.864 94.7738L244.781 82.9271L257.075 71.6514V94.6767ZM257.333 95.1103L269.886 106.621L257.333 118.133L244.781 106.621L257.333 95.1103ZM244.052 106.621L256.969 118.467L244.417 129.98L231.758 118.37V95.3449L244.052 106.621ZM244.052 130.314L231.5 141.827L218.948 130.314L231.5 118.801L244.052 130.314ZM218.948 154.008L231.242 142.732V165.755L218.583 177.365L206.031 165.854L218.948 154.008ZM218.583 153.673L205.925 142.064V119.038L218.219 130.314L231.136 142.161L218.583 153.673ZM231.242 118.37L218.583 129.98L206.031 118.467L218.948 106.621L231.242 95.3449V118.37ZM218.583 106.286L205.925 94.6767V71.6514L218.219 82.9271L231.136 94.7738L218.583 106.286ZM218.219 106.621L205.667 118.133L193.114 106.621L205.667 95.1079L218.219 106.621ZM180.198 142.161L193.114 130.314L205.408 119.038V142.061L192.75 153.671L180.198 142.161ZM205.3 165.854L192.75 177.367L180.092 165.757V142.732L192.386 154.008L205.3 165.854ZM205.408 94.6767L192.75 106.286L180.198 94.7738L193.114 82.9271L205.408 71.6514V94.6767ZM192.386 106.621L205.302 118.467L192.75 129.98L180.092 118.37V95.3449L192.386 106.621ZM192.386 130.314L179.833 141.827L167.281 130.314L179.833 118.801L192.386 130.314ZM167.281 154.008L179.575 142.732V165.755L166.917 177.365L154.364 165.854L167.281 154.008ZM166.917 153.673L154.258 142.064V119.038L166.552 130.314L179.469 142.161L166.917 153.673ZM179.575 118.37L166.917 129.98L154.364 118.467L167.281 106.621L179.575 95.3449V118.37ZM166.917 106.286L154.258 94.6767V71.6514L166.552 82.9271L179.469 94.7738L166.917 106.286ZM166.552 106.621L154 118.133L141.448 106.621L154 95.1079L166.552 106.621ZM128.531 142.161L141.448 130.314L153.742 119.038V142.061L141.083 153.671L128.531 142.161ZM153.633 165.854L141.083 177.367L128.425 165.757V142.732L140.719 154.008L153.633 165.854ZM153.742 94.6767L141.083 106.286L128.531 94.7738L141.448 82.9271L153.742 71.6514V94.6767ZM140.719 106.621L153.636 118.467L141.083 129.98L128.425 118.37V95.3449L140.719 106.621ZM140.719 130.314L128.167 141.827L115.614 130.314L128.167 118.801L140.719 130.314ZM115.614 154.008L127.908 142.732V165.755L115.25 177.365L102.698 165.854L115.614 154.008ZM115.25 153.673L102.592 142.064V119.038L114.886 130.314L127.802 142.161L115.25 153.673ZM127.908 118.37L115.25 129.98L102.698 118.467L115.614 106.621L127.908 95.3449V118.37ZM115.25 106.286L102.592 94.6767V71.6514L114.886 82.9271L127.802 94.7738L115.25 106.286ZM114.886 106.621L102.333 118.133L89.7809 106.621L102.333 95.1079L114.886 106.621ZM76.8643 142.161L89.7809 130.314L102.075 119.038V142.061L89.4167 153.671L76.8643 142.161ZM101.966 165.854L89.4167 177.367L76.7583 165.757V142.732L89.0524 154.008L101.966 165.854ZM102.075 94.6767L89.4167 106.286L76.8643 94.7738L89.7809 82.9271L102.075 71.6514V94.6767ZM89.0524 106.621L101.969 118.467L89.4167 129.98L76.7583 118.37V95.3449L89.0524 106.621ZM89.0524 130.314L76.5 141.827L63.9476 130.314L76.5 118.801L89.0524 130.314ZM63.9476 154.008L76.2417 142.732V165.755L63.5833 177.365L51.0309 165.854L63.9476 154.008ZM63.5833 153.673L50.925 142.064V119.038L63.2191 130.314L76.1357 142.161L63.5833 153.673ZM76.2417 118.37L63.5833 129.98L51.0309 118.467L63.9476 106.621L76.2417 95.3449V118.37ZM63.5833 106.286L50.925 94.6767V71.6514L63.2191 82.9271L76.1357 94.7738L63.5833 106.286ZM63.2191 106.621L50.6667 118.133L38.1143 106.621L50.6667 95.1079L63.2191 106.621ZM50.4083 94.6767L37.75 106.286L25.1976 94.7738L38.1143 82.9271L50.4083 71.6514V94.6767ZM37.3857 106.621L50.3024 118.467L37.75 129.98L25.0917 118.37V95.3449L37.3857 106.621ZM38.1168 130.314L50.4083 119.038V142.061L37.75 153.671L25.1976 142.161L38.1168 130.314ZM37.3857 154.008L50.3024 165.854L37.75 177.367L25.0917 165.757V142.732L37.3857 154.008ZM38.1168 154.008L50.6667 142.495L63.2191 154.008L50.6667 165.52L38.1168 154.008ZM50.925 166.425L63.2191 177.701L76.1357 189.548L63.5833 201.06L50.925 189.451V166.425ZM63.9476 201.394L76.2417 190.119V213.142L63.5833 224.751L51.0309 213.241L63.9476 201.394ZM63.9476 177.701L76.5 166.188L89.0524 177.701L76.5 189.214L63.9476 177.701ZM76.7583 190.119L89.0524 201.394L101.969 213.241L89.4167 224.754L76.7583 213.144V190.119ZM76.8643 189.548L89.7809 177.701L102.075 166.425V189.448L89.4167 201.058L76.8643 189.548ZM89.7809 154.008L102.333 142.495L114.886 154.008L102.333 165.52L89.7809 154.008ZM102.592 166.425L114.886 177.701L127.802 189.548L115.25 201.06L102.592 189.451V166.425ZM115.614 201.394L127.908 190.119V213.142L115.25 224.751L102.698 213.241L115.614 201.394ZM115.614 177.701L128.167 166.188L140.719 177.701L128.167 189.214L115.614 177.701ZM128.425 190.119L140.719 201.394L153.636 213.241L141.083 224.754L128.425 213.144V190.119ZM128.531 189.548L141.448 177.701L153.742 166.425V189.448L141.083 201.058L128.531 189.548ZM141.448 154.008L154 142.495L166.552 154.008L154 165.52L141.448 154.008ZM154.258 166.425L166.552 177.701L179.469 189.548L166.917 201.06L154.258 189.451V166.425ZM167.281 201.394L179.575 190.119V213.142L166.917 224.751L154.364 213.241L167.281 201.394ZM167.281 177.701L179.833 166.188L192.386 177.701L179.833 189.214L167.281 177.701ZM180.092 190.119L192.386 201.394L205.302 213.241L192.75 224.754L180.092 213.144V190.119ZM180.198 189.548L193.114 177.701L205.408 166.425V189.448L192.75 201.058L180.198 189.548ZM193.114 154.008L205.667 142.495L218.219 154.008L205.667 165.52L193.114 154.008ZM205.925 166.425L218.219 177.701L231.136 189.548L218.583 201.06L205.925 189.451V166.425ZM218.948 201.394L231.242 190.119V213.142L218.583 224.751L206.031 213.241L218.948 201.394ZM218.948 177.701L231.5 166.188L244.052 177.701L231.5 189.214L218.948 177.701ZM231.758 190.119L244.052 201.394L256.969 213.241L244.417 224.754L231.758 213.144V190.119ZM231.864 189.548L244.781 177.701L257.075 166.425V189.448L244.417 201.058L231.864 189.548ZM244.781 154.008L257.333 142.495L269.886 154.008L257.333 165.52L244.781 154.008ZM257.698 165.854L270.614 154.008L282.908 142.732V165.755L270.25 177.365L257.698 165.854ZM270.25 153.673L257.592 142.064V119.038L269.886 130.314L282.802 142.161L270.25 153.673ZM257.698 118.467L270.614 106.621L282.908 95.3449V118.368L270.25 129.978L257.698 118.467ZM270.25 106.286L257.592 94.6767V71.6514L269.886 82.9271L282.802 94.7738L270.25 106.286ZM257.698 71.0804L270.614 59.2337L282.908 47.9579V70.9809L270.25 82.5907L257.698 71.0804ZM270.25 58.8996L257.592 47.2898V24.2645L269.886 35.5402L282.802 47.3869L270.25 58.8996ZM269.886 59.2337L257.333 70.7463L244.781 59.2337L257.333 47.721L269.886 59.2337ZM257.075 47.2898L244.417 58.8996L231.864 47.3869L244.781 35.5402L257.075 24.2645V47.2898ZM244.052 59.2337L256.969 71.0804L244.417 82.593L231.758 70.9832V47.9579L244.052 59.2337ZM244.052 82.9271L231.5 94.4398L218.948 82.9271L231.5 71.4145L244.052 82.9271ZM231.242 70.9832L218.583 82.593L206.031 71.0804L218.948 59.2337L231.242 47.9579V70.9832ZM218.583 58.8996L205.925 47.2898V24.2645L218.219 35.5402L231.136 47.3869L218.583 58.8996ZM218.219 59.2337L205.667 70.7463L193.114 59.2337L205.667 47.721L218.219 59.2337ZM205.408 47.2898L192.75 58.8996L180.198 47.3869L193.114 35.5402L205.408 24.2645V47.2898ZM192.386 59.2337L205.302 71.0804L192.75 82.593L180.092 70.9832V47.9579L192.386 59.2337ZM192.386 82.9271L179.833 94.4398L167.281 82.9271L179.833 71.4145L192.386 82.9271ZM179.575 70.9832L166.917 82.593L154.364 71.0804L167.281 59.2337L179.575 47.9579V70.9832ZM166.917 58.8996L154.258 47.2898V24.2645L166.552 35.5402L179.469 47.3869L166.917 58.8996ZM166.552 59.2337L154 70.7463L141.448 59.2337L154 47.721L166.552 59.2337ZM153.742 47.2898L141.083 58.8996L128.531 47.3869L141.448 35.5402L153.742 24.2645V47.2898ZM140.719 59.2337L153.636 71.0804L141.083 82.593L128.425 70.9832V47.9579L140.719 59.2337ZM140.719 82.9271L128.167 94.4398L115.614 82.9271L128.167 71.4145L140.719 82.9271ZM127.908 70.9832L115.25 82.593L102.698 71.0804L115.614 59.2337L127.908 47.9579V70.9832ZM115.25 58.8996L102.592 47.2898V24.2645L114.886 35.5402L127.802 47.3869L115.25 58.8996ZM114.886 59.2337L102.333 70.7463L89.7809 59.2337L102.333 47.721L114.886 59.2337ZM102.075 47.2898L89.4167 58.8996L76.8643 47.3869L89.7809 35.5402L102.075 24.2645V47.2898ZM89.0524 59.2337L101.969 71.0804L89.4167 82.593L76.7583 70.9832V47.9579L89.0524 59.2337ZM89.0524 82.9271L76.5 94.4398L63.9476 82.9271L76.5 71.4145L89.0524 82.9271ZM76.2417 70.9832L63.5833 82.593L51.0309 71.0804L63.9476 59.2337L76.2417 47.9579V70.9832ZM63.5833 58.8996L50.925 47.2898V24.2645L63.2191 35.5402L76.1357 47.3869L63.5833 58.8996ZM63.2191 59.2337L50.6667 70.7463L38.1143 59.2337L50.6667 47.721L63.2191 59.2337ZM50.4083 47.2898L37.75 58.8996L25.1976 47.3869L38.1143 35.5402L50.4083 24.2645V47.2898ZM37.3857 59.2337L50.3024 71.0804L37.75 82.593L25.0917 70.9832V47.9579L37.3857 59.2337ZM37.3857 82.9271L24.8333 94.4398L12.2809 82.9271L24.8333 71.4145L37.3857 82.9271ZM37.3857 130.314L24.8333 141.827L12.2809 130.314L24.8333 118.801L37.3857 130.314ZM37.3857 177.701L24.8333 189.214L12.2809 177.701L24.8333 166.188L37.3857 177.701ZM37.3857 225.088L24.8333 236.601L12.2809 225.088L24.8333 213.575L37.3857 225.088ZM38.1168 225.088L50.4083 213.812V236.835L37.75 248.445L25.1976 236.935L38.1168 225.088ZM38.1168 201.394L50.6667 189.882L63.2191 201.394L50.6667 212.907L38.1168 201.394ZM50.925 213.812L63.2191 225.088L76.1357 236.935L63.5833 248.447L50.925 236.837V213.812ZM63.9476 225.088L76.5 213.575L89.0524 225.088L76.5 236.601L63.9476 225.088ZM89.7809 225.088L102.075 213.812V236.835L89.4167 248.445L76.8643 236.935L89.7809 225.088ZM89.7809 201.394L102.333 189.882L114.886 201.394L102.333 212.907L89.7809 201.394ZM102.592 213.812L114.886 225.088L127.802 236.935L115.25 248.447L102.592 236.837V213.812ZM115.614 225.088L128.167 213.575L140.719 225.088L128.167 236.601L115.614 225.088ZM141.448 225.088L153.742 213.812V236.835L141.083 248.445L128.531 236.935L141.448 225.088ZM141.448 201.394L154 189.882L166.552 201.394L154 212.907L141.448 201.394ZM154.258 213.812L166.552 225.088L179.469 236.935L166.917 248.447L154.258 236.837V213.812ZM167.281 225.088L179.833 213.575L192.386 225.088L179.833 236.601L167.281 225.088ZM193.114 225.088L205.408 213.812V236.835L192.75 248.445L180.198 236.935L193.114 225.088ZM193.114 201.394L205.667 189.882L218.219 201.394L205.667 212.907L193.114 201.394ZM205.925 213.812L218.219 225.088L231.136 236.935L218.583 248.447L205.925 236.837V213.812ZM218.948 225.088L231.5 213.575L244.052 225.088L231.5 236.601L218.948 225.088ZM244.781 225.088L257.075 213.812V236.835L244.417 248.445L231.864 236.935L244.781 225.088ZM244.781 201.394L257.333 189.882L269.886 201.394L257.333 212.907L244.781 201.394ZM257.592 213.812L269.886 225.088L282.802 236.935L270.25 248.447L257.592 236.837V213.812ZM270.614 225.088L283.167 213.575L295.719 225.088L283.167 236.601L270.614 225.088ZM270.614 177.701L283.167 166.188L295.719 177.701L283.167 189.214L270.614 177.701ZM270.614 130.314L283.167 118.801L295.719 130.314L283.167 141.827L270.614 130.314ZM270.614 82.9271L283.167 71.4145L295.719 82.9271L283.167 94.4398L270.614 82.9271ZM270.614 35.5402L283.167 24.0275L295.719 35.5402L283.167 47.0528L270.614 35.5402ZM270.614 11.8467L282.908 0.571012V23.5963L270.25 35.2061L257.698 23.6935L270.614 11.8467ZM257.333 0.334078L269.886 11.8467L257.333 23.3594L244.781 11.8467L257.333 0.334078ZM231.758 0.571012L244.052 11.8467L256.969 23.6935L244.417 35.2061L231.758 23.5963V0.571012ZM244.052 35.5402L231.5 47.0528L218.948 35.5402L231.5 24.0275L244.052 35.5402ZM218.948 11.8467L231.242 0.571012V23.5963L218.583 35.2061L206.031 23.6935L218.948 11.8467ZM205.667 0.334078L218.219 11.8467L205.667 23.3594L193.114 11.8467L205.667 0.334078ZM180.092 0.571012L192.386 11.8467L205.302 23.6935L192.75 35.2061L180.092 23.5963V0.571012ZM192.386 35.5402L179.833 47.0528L167.281 35.5402L179.833 24.0275L192.386 35.5402ZM167.281 11.8467L179.575 0.571012V23.5963L166.917 35.2061L154.364 23.6935L167.281 11.8467ZM154 0.334078L166.552 11.8467L154 23.3594L141.448 11.8467L154 0.334078ZM128.425 0.571012L140.719 11.8467L153.636 23.6935L141.083 35.2061L128.425 23.5963V0.571012ZM140.719 35.5402L128.167 47.0528L115.614 35.5402L128.167 24.0275L140.719 35.5402ZM115.614 11.8467L127.908 0.571012V23.5963L115.25 35.2061L102.698 23.6935L115.614 11.8467ZM102.333 0.334078L114.886 11.8467L102.333 23.3594L89.7809 11.8467L102.333 0.334078ZM76.7583 0.571012L89.0524 11.8467L101.969 23.6935L89.4167 35.2061L76.7583 23.5963V0.571012ZM89.0524 35.5402L76.5 47.0528L63.9476 35.5402L76.5 24.0275L89.0524 35.5402ZM63.9476 11.8467L76.2417 0.571012V23.5963L63.5833 35.2061L51.0309 23.6935L63.9476 11.8467ZM50.6667 0.334078L63.2191 11.8467L50.6667 23.3594L38.1143 11.8467L50.6667 0.334078ZM25.0917 0.571012L37.3857 11.8467L50.3024 23.6935L37.75 35.2061L25.0917 23.5963V0.571012ZM37.3857 35.5402L24.8333 47.0528L12.2809 35.5402L24.8333 24.0275L37.3857 35.5402ZM12.2809 11.8467L24.575 0.571012V23.5963L11.9167 35.2061L-0.63575 23.6935L12.2809 11.8467ZM-0.741667 47.2898V24.2645L11.5524 35.5402L24.4691 47.3869L11.9167 58.8996L-0.741667 47.2898ZM12.2809 59.2337L24.575 47.9579V70.9809L11.9167 82.5907L-0.63575 71.0804L12.2809 59.2337ZM-0.741667 94.6767V71.6514L11.5524 82.9271L24.4691 94.7738L11.9167 106.286L-0.741667 94.6767ZM12.2809 106.621L24.575 95.3449V118.368L11.9167 129.978L-0.63575 118.467L12.2809 106.621ZM-0.741667 142.064V119.038L11.5524 130.314L24.4691 142.161L11.9167 153.673L-0.741667 142.064ZM12.2809 154.008L24.575 142.732V165.755L11.9167 177.365L-0.63575 165.854L12.2809 154.008ZM-0.741667 189.451V166.425L11.5524 177.701L24.4691 189.548L11.9167 201.06L-0.741667 189.451ZM12.2809 201.394L24.575 190.119V213.142L11.9167 224.751L-0.63575 213.241L12.2809 201.394ZM-0.741667 236.837V213.812L11.5524 225.088L24.4691 236.935L11.9167 248.447L-0.741667 236.837ZM-0.63575 260.628L12.2809 248.781L24.575 237.506V260.529L11.9167 272.138L-0.63575 260.628ZM24.8333 283.987L12.2809 272.475L24.8333 260.962L37.3857 272.475L24.8333 283.987ZM37.75 272.141L25.0917 260.531V237.508L37.3857 248.781L50.3024 260.628L37.75 272.141ZM50.6667 260.294L38.1143 248.781L50.6667 237.269L63.2191 248.781L50.6667 260.294ZM51.0309 260.628L63.9476 248.781L76.2417 237.506V260.529L63.5833 272.138L51.0309 260.628ZM76.5 283.987L63.9476 272.475L76.5 260.962L89.0524 272.475L76.5 283.987ZM89.4167 272.141L76.7583 260.531V237.508L89.0524 248.781L101.969 260.628L89.4167 272.141ZM102.333 260.294L89.7809 248.781L102.333 237.269L114.886 248.781L102.333 260.294ZM102.698 260.628L115.614 248.781L127.908 237.506V260.529L115.25 272.138L102.698 260.628ZM128.167 283.987L115.614 272.475L128.167 260.962L140.719 272.475L128.167 283.987ZM141.083 272.141L128.425 260.531V237.508L140.719 248.781L153.636 260.628L141.083 272.141ZM154 260.294L141.448 248.781L154 237.269L166.552 248.781L154 260.294ZM154.364 260.628L167.281 248.781L179.575 237.506V260.529L166.917 272.138L154.364 260.628ZM179.833 283.987L167.281 272.475L179.833 260.962L192.386 272.475L179.833 283.987ZM192.75 272.141L180.092 260.531V237.508L192.386 248.781L205.302 260.628L192.75 272.141ZM205.667 260.294L193.114 248.781L205.667 237.269L218.219 248.781L205.667 260.294ZM206.031 260.628L218.948 248.781L231.242 237.506V260.529L218.583 272.138L206.031 260.628ZM231.5 283.987L218.948 272.475L231.5 260.962L244.052 272.475L231.5 283.987ZM244.417 272.141L231.758 260.531V237.508L244.052 248.781L256.969 260.628L244.417 272.141ZM257.333 260.294L244.781 248.781L257.333 237.269L269.886 248.781L257.333 260.294ZM257.698 260.628L270.614 248.781L282.908 237.506V260.529L270.25 272.138L257.698 260.628ZM283.167 283.987L270.614 272.475L283.167 260.962L295.719 272.475L283.167 283.987ZM308.636 260.628L296.083 272.141L283.425 260.531V237.508L295.719 248.784L308.636 260.628ZM308.742 236.837L296.083 248.447L283.531 236.935L296.448 225.088L308.742 213.812V236.837ZM308.636 213.241L296.083 224.754L283.425 213.144V190.119L295.719 201.394L308.636 213.241ZM308.742 189.451L296.083 201.06L283.531 189.548L296.448 177.701L308.742 166.425V189.451ZM308.636 165.854L296.083 177.367L283.425 165.757V142.732L295.719 154.008L308.636 165.854ZM308.742 142.064L296.083 153.673L283.531 142.161L296.448 130.314L308.742 119.038V142.064ZM308.636 118.467L296.083 129.98L283.425 118.37V95.3449L295.719 106.621L308.636 118.467ZM308.742 94.6767L296.083 106.286L283.531 94.7738L296.448 82.9271L308.742 71.6514V94.6767ZM308.636 71.0804L296.083 82.593L283.425 70.9832V47.9579L295.719 59.2337L308.636 71.0804ZM308.742 47.2898L296.083 58.8996L283.531 47.3869L296.448 35.5402L308.742 24.2645V47.2898ZM308.636 23.6935L296.083 35.2061L283.425 23.5963V0.571012L295.719 11.8467L308.636 23.6935Z" fill="url(#paint0_linear)"/>
<defs>
<linearGradient id="paint0_linear" x1="-1" y1="142.161" x2="309" y2="142.161" gradientUnits="userSpaceOnUse">
<stop stop-color="#BE965D"/>
<stop offset="0.28" stop-color="#976F40"/>
<stop offset="0.43" stop-color="#C99B61"/>
<stop offset="0.56" stop-color="#F0BE7B"/>
<stop offset="0.63" stop-color="#FFCB85"/>
<stop offset="0.71" stop-color="#EEBC79"/>
<stop offset="0.87" stop-color="#C0935B"/>
<stop offset="1" stop-color="#976F40"/>
</linearGradient>
</defs>
</svg>
